<svg width="24" height="24" viewBox="0 0 24 24" fill="none" xmlns="http://www.w3.org/2000/svg">
<path d="M15.388 13.9015H14.6002L14.3276 13.6289C15.2988 12.5041 15.8836 11.0423 15.8836 9.44178C15.8836 5.88393 12.9996 3 9.44178 3C5.88393 3 3 5.88393 3 9.44178C3 12.9996 5.88393 15.8836 9.44178 15.8836C11.0423 15.8836 12.5041 15.2988 13.6289 14.3326L13.9015 14.6051V15.388L18.8567 20.3333L20.3333 18.8567L15.388 13.9015ZM9.44178 13.9015C6.97904 13.9015 4.98209 11.9045 4.98209 9.44178C4.98209 6.97904 6.97904 4.98209 9.44178 4.98209C11.9045 4.98209 13.9015 6.97904 13.9015 9.44178C13.9015 11.9045 11.9045 13.9015 9.44178 13.9015Z" fill="#959595"/>
</svg>
