<svg width="24" height="24" viewBox="0 0 24 24" fill="none" xmlns="http://www.w3.org/2000/svg">
<path fill-rule="evenodd" clip-rule="evenodd" d="M10.6667 -6.10352e-05C10.2985 -6.10352e-05 10 0.298415 10 0.666604V9.99994H0.666667C0.298477 9.99994 0 10.2984 0 10.6666V13.3333C0 13.7015 0.298476 13.9999 0.666665 13.9999H10V23.3333C10 23.7015 10.2985 23.9999 10.6667 23.9999H13.3333C13.7015 23.9999 14 23.7015 14 23.3333V13.9999H23.3333C23.7015 13.9999 24 13.7015 24 13.3333V10.6666C24 10.2984 23.7015 9.99994 23.3333 9.99994H14V0.666606C14 0.298416 13.7015 -6.10352e-05 13.3333 -6.10352e-05H10.6667Z" fill="#181818"/>
</svg>
