<svg width="280" height="206" viewBox="0 0 280 206" fill="none" xmlns="http://www.w3.org/2000/svg">
<path d="M176.264 140C166.285 140.843 140.069 141.258 128.264 133.5" stroke="#BE4AF5" stroke-width="0.3" stroke-linecap="round" stroke-linejoin="round"/>
<path d="M176.264 140C166.285 140.843 140.069 141.258 128.264 133.5" stroke="url(#paint0_linear)" stroke-width="0.3" stroke-linecap="round" stroke-linejoin="round"/>
<path d="M160.263 115C169.763 125 176.263 127.5 189.263 125" stroke="#BE4AF5" stroke-width="0.3" stroke-linecap="round" stroke-linejoin="round"/>
<path d="M176.264 140C176.764 130 186.764 134 189.264 125" stroke="#BE4AF5" stroke-width="0.3" stroke-linecap="round" stroke-linejoin="round"/>
<path d="M176.264 140C176.764 130 186.764 134 189.264 125" stroke="url(#paint1_linear)" stroke-width="0.3" stroke-linecap="round" stroke-linejoin="round"/>
<path d="M164.264 67C173.061 72.7118 194.441 86.0062 218.264 66" stroke="#BE4AF5" stroke-width="0.5" stroke-linecap="round" stroke-linejoin="round"/>
<path d="M198.565 159.507C197.722 161.615 206.538 166.477 212.901 164.989C219.263 163.5 222.763 158 221.966 152.29C221.168 146.581 211.734 145.776 214.263 136.5C216.793 127.224 225.234 133.142 227.763 138" stroke="#BE4AF5" stroke-width="0.3" stroke-linecap="round" stroke-linejoin="round"/>
<path d="M198.565 159.507C197.722 161.615 206.538 166.477 212.901 164.989C219.263 163.5 222.763 158 221.966 152.29C221.168 146.581 211.734 145.776 214.263 136.5C216.793 127.224 225.234 133.142 227.763 138" stroke="url(#paint2_linear)" stroke-width="0.3" stroke-linecap="round" stroke-linejoin="round"/>
<path d="M198.143 161.615C198.143 161.615 194.349 149.81 188.867 143.485C183.386 137.16 176.264 140 176.264 140" stroke="#BE4AF5" stroke-width="0.3" stroke-linecap="round" stroke-linejoin="round"/>
<path d="M198.143 161.615C198.143 161.615 194.349 149.81 188.867 143.485C183.386 137.16 176.264 140 176.264 140" stroke="url(#paint3_linear)" stroke-width="0.3" stroke-linecap="round" stroke-linejoin="round"/>
<path d="M176.264 140C175.42 144.919 167.172 158.639 160.764 161C152.752 163.951 129.528 150.366 128.264 133.5C128.134 131.766 155.136 116.922 158.509 110.597C162.216 103.647 140.379 85.2988 122.67 91.2017" stroke="#96FFFF" stroke-width="0.3"/>
<path d="M176.264 140C175.42 144.919 167.172 158.639 160.764 161C152.752 163.951 129.528 150.366 128.264 133.5C128.134 131.766 155.136 116.922 158.509 110.597C162.216 103.647 140.379 85.2988 122.67 91.2017" stroke="url(#paint4_linear)" stroke-width="0.3"/>
<path d="M176.264 140C175.42 144.919 167.172 158.639 160.764 161C152.752 163.951 129.528 150.366 128.264 133.5C128.134 131.766 155.136 116.922 158.509 110.597C162.216 103.647 140.379 85.2988 122.67 91.2017" stroke="url(#paint5_linear)" stroke-width="0.3"/>
<path d="M176.264 140C175.42 144.919 167.172 158.639 160.764 161C152.752 163.951 129.528 150.366 128.264 133.5C128.134 131.766 155.136 116.922 158.509 110.597C162.216 103.647 140.379 85.2988 122.67 91.2017" stroke="url(#paint6_linear)" stroke-width="0.3"/>
<path d="M83.2635 151C92.0336 139.531 93.1553 124.279 91.8903 119.5M91.8903 119.5C100.264 115 101.744 114 104.264 93C105.764 80.5 110.264 74 126.043 74.3362C145.764 74.7564 145.438 58.314 141.222 46.5081C137.849 37.0634 134.826 33.1244 134.264 32M91.8903 119.5C71.7635 118 71.2635 94.5 73.2635 81M47.6183 142.22C48.1805 140.393 47.6183 135.558 40.8721 130.836C34.1259 126.113 31.5446 124.124 31.2635 123C38.9936 123.703 59.5085 119.705 63.2189 108.911C67.8569 95.4181 71.1554 81.8433 73.2635 81M73.2635 81C75.3717 86.3408 78.7352 89.5995 90.2038 83.1906C101.672 76.7817 104.399 69.2766 101.166 63.7953M160.764 36.5C157.672 39.592 151.932 47.267 154.293 60.4222C157.244 76.8661 155.136 86.9854 163.569 91.2018C170.315 94.5749 184.37 91.4829 190.554 89.5152M128.264 133.5C124.89 126.894 120.899 106.887 130.681 102.164C142.909 96.2614 153.45 103.851 164.834 100.899C176.218 97.948 177.483 91.2018 177.905 84.4555C178.242 79.0586 168.761 70.9353 164.264 67" stroke="#BE4AF5" stroke-width="0.3" stroke-linecap="round" stroke-linejoin="round"/>
<path d="M83.2635 151C92.0336 139.531 93.1553 124.279 91.8903 119.5M91.8903 119.5C100.264 115 101.744 114 104.264 93C105.764 80.5 110.264 74 126.043 74.3362C145.764 74.7564 145.438 58.314 141.222 46.5081C137.849 37.0634 134.826 33.1244 134.264 32M91.8903 119.5C71.7635 118 71.2635 94.5 73.2635 81M47.6183 142.22C48.1805 140.393 47.6183 135.558 40.8721 130.836C34.1259 126.113 31.5446 124.124 31.2635 123C38.9936 123.703 59.5085 119.705 63.2189 108.911C67.8569 95.4181 71.1554 81.8433 73.2635 81M73.2635 81C75.3717 86.3408 78.7352 89.5995 90.2038 83.1906C101.672 76.7817 104.399 69.2766 101.166 63.7953M160.764 36.5C157.672 39.592 151.932 47.267 154.293 60.4222C157.244 76.8661 155.136 86.9854 163.569 91.2018C170.315 94.5749 184.37 91.4829 190.554 89.5152M128.264 133.5C124.89 126.894 120.899 106.887 130.681 102.164C142.909 96.2614 153.45 103.851 164.834 100.899C176.218 97.948 177.483 91.2018 177.905 84.4555C178.242 79.0586 168.761 70.9353 164.264 67" stroke="url(#paint7_linear)" stroke-width="0.3" stroke-linecap="round" stroke-linejoin="round"/>
<path d="M160.264 161C148.764 157.5 138.069 134.072 154.293 127.463C163.4 123.752 162.512 117.435 160.264 113.5" stroke="#BE4AF5" stroke-width="0.3" stroke-linecap="round" stroke-linejoin="round"/>
<path d="M160.264 161C148.764 157.5 138.069 134.072 154.293 127.463C163.4 123.752 162.512 117.435 160.264 113.5" stroke="url(#paint8_linear)" stroke-width="0.3" stroke-linecap="round" stroke-linejoin="round"/>
<path d="M8.26352 98.5C-2.7918 106.646 -1.81445 131.212 15.2635 130.5C23.359 130.163 28.504 126.057 31.596 123.668M42.9803 59.1573C36.5151 53.957 27.464 40.7738 42.9803 29.6426C62.3756 15.7285 74.1815 6.87409 83.8792 17.4151C93.5769 27.956 105.804 49.0379 116.767 47.3514C125.537 46.0021 132.296 36.4975 134.264 32" stroke="#BE4AF5" stroke-width="0.3" stroke-linecap="round" stroke-linejoin="round"/>
<path d="M8.26352 98.5C-2.7918 106.646 -1.81445 131.212 15.2635 130.5C23.359 130.163 28.504 126.057 31.596 123.668M42.9803 59.1573C36.5151 53.957 27.464 40.7738 42.9803 29.6426C62.3756 15.7285 74.1815 6.87409 83.8792 17.4151C93.5769 27.956 105.804 49.0379 116.767 47.3514C125.537 46.0021 132.296 36.4975 134.264 32" stroke="url(#paint9_linear)" stroke-width="0.3" stroke-linecap="round" stroke-linejoin="round"/>
<path d="M20.2635 45.9999C25.7448 38.8321 39.1855 23.3179 49.3049 41.0267C59.4242 58.7356 72.0733 38.0753 77.133 48.6162C81.1807 57.049 76.4961 74.1132 73.2635 80.9999M74.2635 36C77.4961 41.6219 87.5053 50.4715 95.2634 44.3999C104.961 36.8103 107.069 25.8477 119.718 21.6314C129.838 18.2583 133.842 27.5025 134.264 32" stroke="#BE4AF5" stroke-width="0.3" stroke-linecap="round" stroke-linejoin="round"/>
<path d="M20.2635 45.9999C25.7448 38.8321 39.1855 23.3179 49.3049 41.0267C59.4242 58.7356 72.0733 38.0753 77.133 48.6162C81.1807 57.049 76.4961 74.1132 73.2635 80.9999M74.2635 36C77.4961 41.6219 87.5053 50.4715 95.2634 44.3999C104.961 36.8103 107.069 25.8477 119.718 21.6314C129.838 18.2583 133.842 27.5025 134.264 32" stroke="url(#paint10_linear)" stroke-width="0.3" stroke-linecap="round" stroke-linejoin="round"/>
<path d="M252.956 41.0268C258.016 43.9783 267.461 53.0013 264.762 65.4818C262.064 77.9623 251.402 79.9676 246.764 78C244.796 80.2487 241.572 87.4914 241.572 101.321C241.572 115.151 247.264 118 253.764 118M241.572 37.5C240.729 38.3433 236.649 42.7538 232.264 49.5C226.782 57.9328 206.576 55.7842 201.938 46.5081C197.3 37.2321 190.554 27.5344 183.386 23.7396C176.218 19.9449 156.823 16.1501 149.233 18.68C143.162 20.7038 137.356 28.7674 134.264 32M216.695 86.5638C222.036 85.5799 232.043 87.1541 229.344 101.321C225.971 119.03 225.55 123.668 213.744 126.198C204.299 128.222 194.264 129 189.264 125M214.764 92.5C214.764 95.8731 210.371 101.405 196.878 105.116C183.386 108.826 185.469 97.0273 189.264 90M276.264 82C276.404 74.8321 272.52 60.0849 256.329 58.7356C236.091 57.0491 245.367 69.6982 228.501 73.493C211.636 77.2877 192.662 68.4333 187.181 53.676C182.796 41.8701 169.264 31.4075 161.264 36.5" stroke="#BE4AF5" stroke-width="0.3" stroke-linecap="round" stroke-linejoin="round"/>
<path d="M252.956 41.0268C258.016 43.9783 267.461 53.0013 264.762 65.4818C262.064 77.9623 251.402 79.9676 246.764 78C244.796 80.2487 241.572 87.4914 241.572 101.321C241.572 115.151 247.264 118 253.764 118M241.572 37.5C240.729 38.3433 236.649 42.7538 232.264 49.5C226.782 57.9328 206.576 55.7842 201.938 46.5081C197.3 37.2321 190.554 27.5344 183.386 23.7396C176.218 19.9449 156.823 16.1501 149.233 18.68C143.162 20.7038 137.356 28.7674 134.264 32M216.695 86.5638C222.036 85.5799 232.043 87.1541 229.344 101.321C225.971 119.03 225.55 123.668 213.744 126.198C204.299 128.222 194.264 129 189.264 125M214.764 92.5C214.764 95.8731 210.371 101.405 196.878 105.116C183.386 108.826 185.469 97.0273 189.264 90M276.264 82C276.404 74.8321 272.52 60.0849 256.329 58.7356C236.091 57.0491 245.367 69.6982 228.501 73.493C211.636 77.2877 192.662 68.4333 187.181 53.676C182.796 41.8701 169.264 31.4075 161.264 36.5" stroke="url(#paint11_linear)" stroke-width="0.3" stroke-linecap="round" stroke-linejoin="round"/>
<path d="M100.745 61.6871C102.431 55.0814 109.009 44.7372 121.827 56.2058C137.849 70.5415 126.465 86.1421 145.017 86.1421C158.847 86.1421 173.961 82.6006 164.263 67" stroke="#BE4AF5" stroke-width="0.3" stroke-linecap="round" stroke-linejoin="round"/>
<path d="M100.745 61.6871C102.431 55.0814 109.009 44.7372 121.827 56.2058C137.849 70.5415 126.465 86.1421 145.017 86.1421C158.847 86.1421 173.961 82.6006 164.263 67" stroke="url(#paint12_linear)" stroke-width="0.3" stroke-linecap="round" stroke-linejoin="round"/>
<path d="M90.2037 12.777C102.01 5.18754 107.913 -4.08851 118.454 4.34426C128.994 12.777 143.752 17.8367 149.655 12.777C154.377 8.7293 169.612 11.0905 176.64 12.777M185.494 1.81444C204.468 -1.13702 239.464 5.60917 234.826 23.7396M82.7635 151C80.3742 154.935 80.2472 165.837 95.7635 165.5C115.159 165.078 114.763 147.5 123.763 155C131.585 161.518 130.259 178.481 144.595 174.265C156.064 170.891 159.561 165.435 160.263 161.5M227.764 138C223.633 142.131 222.899 145.738 224.764 148.5C226.071 150.437 228.327 152.308 238.199 149.388C268.135 140.533 279.519 135.474 273.195 120.716C266.87 105.959 259.263 100 258.437 91.2018C257.611 82.4035 272.328 83.8271 276.264 82M198.565 160.772C174.531 174.265 190.373 189.429 187 202.5" stroke="#BE4AF5" stroke-width="0.3" stroke-linecap="round" stroke-linejoin="round"/>
<path d="M90.2037 12.777C102.01 5.18754 107.913 -4.08851 118.454 4.34426C128.994 12.777 143.752 17.8367 149.655 12.777C154.377 8.7293 169.612 11.0905 176.64 12.777M185.494 1.81444C204.468 -1.13702 239.464 5.60917 234.826 23.7396M82.7635 151C80.3742 154.935 80.2472 165.837 95.7635 165.5C115.159 165.078 114.763 147.5 123.763 155C131.585 161.518 130.259 178.481 144.595 174.265C156.064 170.891 159.561 165.435 160.263 161.5M227.764 138C223.633 142.131 222.899 145.738 224.764 148.5C226.071 150.437 228.327 152.308 238.199 149.388C268.135 140.533 279.519 135.474 273.195 120.716C266.87 105.959 259.263 100 258.437 91.2018C257.611 82.4035 272.328 83.8271 276.264 82M198.565 160.772C174.531 174.265 190.373 189.429 187 202.5" stroke="url(#paint13_linear)" stroke-width="0.3" stroke-linecap="round" stroke-linejoin="round"/>
<path d="M219.209 170C204.873 174.216 195.175 186.022 201.5 205.839" stroke="#BE4AF5" stroke-width="0.3" stroke-linecap="round" stroke-linejoin="round"/>
<path d="M219.209 170C204.873 174.216 195.175 186.022 201.5 205.839" stroke="url(#paint14_linear)" stroke-width="0.3" stroke-linecap="round" stroke-linejoin="round"/>
<circle r="3" transform="matrix(1 0 0 -1 73.2635 81)" fill="#96FFFF"/>
<circle r="3.16229" transform="matrix(1 0 0 -1 8.42584 98.3641)" fill="#96FFFF"/>
<circle r="3" transform="matrix(1 0 0 -1 74.2635 36)" fill="#96FFFF"/>
<circle r="2.95147" transform="matrix(1 0 0 -1 160.848 37.0157)" fill="#96FFFF"/>
<circle r="3.16229" transform="matrix(1 0 0 -1 121.426 92.1623)" fill="#96FFFF"/>
<circle r="3.16229" transform="matrix(1 0 0 -1 47.4258 144.162)" fill="#96FFFF"/>
<circle r="3.16229" transform="matrix(1 0 0 -1 176.426 140.162)" fill="#96FFFF"/>
<ellipse rx="3.16229" ry="2.95147" transform="matrix(1 0 0 -1 253.426 41.9515)" fill="#96FFFF"/>
<circle r="3.16229" transform="matrix(1 0 0 -1 100.426 64.1623)" fill="#9536C1"/>
<circle r="3.16229" transform="matrix(1 0 0 -1 189.426 125.162)" fill="#9536C1"/>
<circle r="3.16229" transform="matrix(1 0 0 -1 44.4258 61.1623)" fill="#9536C1"/>
<path d="M249.814 78.3362C249.814 76.5898 248.398 75.174 246.652 75.174C244.905 75.174 243.489 76.5898 243.489 78.3362C243.489 80.0827 244.905 81.4985 246.652 81.4985C248.398 81.4985 249.814 80.0827 249.814 78.3362Z" fill="#9536C1"/>
<circle r="3.16229" transform="matrix(1 0 0 -1 218.402 65.898)" fill="#9536C1"/>
<circle r="3.16229" transform="matrix(1 0 0 -1 31.4258 123.162)" fill="#9536C1"/>
<circle r="3.16229" transform="matrix(1 0 0 -1 83.0558 151.069)" fill="#96FFFF"/>
<circle r="3.16229" transform="matrix(1 0 0 -1 276.426 82.1623)" fill="#96FFFF"/>
<circle r="3.16229" transform="matrix(1 0 0 -1 253.819 118.181)" fill="#96FFFF"/>
<ellipse rx="3.16229" ry="2.95147" transform="matrix(1 0 0 -1 214.185 117.549)" fill="#96FFFF"/>
<circle r="3" transform="matrix(1 0 0 -1 215.264 92)" fill="#96FFFF"/>
<circle r="3.16229" transform="matrix(1 0 0 -1 227.678 137.998)" fill="#F54A4A"/>
<circle r="3.16229" transform="matrix(1 0 0 -1 128.426 133.162)" fill="#9536C1"/>
<circle r="3.16229" transform="matrix(1 0 0 -1 199.426 161.162)" fill="#9536C1"/>
<circle r="3.16229" transform="matrix(1 0 0 -1 164.426 67.1623)" fill="#9536C1"/>
<circle r="3.16229" transform="matrix(1 0 0 -1 160.426 161.162)" fill="#F54A4A"/>
<circle r="3.16229" transform="matrix(1 0 0 -1 91.9102 119.446)" fill="#F54A4A"/>
<circle r="3.16229" transform="matrix(1 0 0 -1 242.014 37.6481)" fill="#F54A4A"/>
<circle r="3.16229" transform="matrix(1 0 0 -1 20.4258 46.1623)" fill="#F54A4A"/>
<circle r="3.16229" transform="matrix(1 0 0 -1 134.426 32.1623)" fill="#F54A4A"/>
<circle r="3.16229" transform="matrix(1 0 0 -1 160.216 115.23)" fill="#9536C1"/>
<circle r="3.16229" transform="matrix(1 0 0 -1 189.426 90.1623)" fill="#9536C1"/>
<g opacity="0.2">
<ellipse rx="2.49581" ry="2.32943" transform="matrix(-4.37114e-08 1 1 4.37114e-08 122.735 53.9029)" fill="#96FFFF"/>
<circle r="2.49581" transform="matrix(-4.37114e-08 1 1 4.37114e-08 159.146 24.1469)" fill="#96FFFF"/>
<circle r="2.5" transform="matrix(-4.37114e-08 1 1 4.37114e-08 150.5 41.5)" fill="#96FFFF"/>
<circle r="2.32943" transform="matrix(-4.37114e-08 1 1 4.37114e-08 144.593 114.329)" fill="#96FFFF"/>
<circle r="2.49581" transform="matrix(-4.37114e-08 1 1 4.37114e-08 76.6455 130.782)" fill="#96FFFF"/>
<circle r="2.49581" transform="matrix(-4.37114e-08 1 1 4.37114e-08 113.583 85.7495)" fill="#96FFFF"/>
<circle r="2.49581" transform="matrix(-4.37114e-08 1 1 4.37114e-08 79.3112 19.4958)" fill="#96FFFF"/>
<ellipse rx="2.49581" ry="2.32943" transform="matrix(-4.37114e-08 1 1 4.37114e-08 43.2016 33.6037)" fill="#96FFFF"/>
<path d="M44.418 52.6586C45.7964 52.6586 46.9138 51.5412 46.9138 50.1628C46.9138 48.7844 45.7964 47.6669 44.418 47.6669C43.0396 47.6669 41.9222 48.7844 41.9222 50.1628C41.9222 51.5412 43.0396 52.6586 44.418 52.6586Z" fill="#9536C1"/>
<circle r="2.49581" transform="matrix(-4.37114e-08 1 1 4.37114e-08 25.7309 69.1025)" fill="#9536C1"/>
<circle r="2.49581" transform="matrix(-4.37114e-08 1 1 4.37114e-08 97.1308 41.9763)" fill="#9536C1"/>
<circle r="2.49581" transform="matrix(-4.37114e-08 1 1 4.37114e-08 104.117 172.208)" fill="#9536C1"/>
<circle r="2.49581" transform="matrix(-4.37114e-08 1 1 4.37114e-08 169.223 57.4799)" fill="#9536C1"/>
<circle r="2.49581" transform="matrix(-4.37114e-08 1 1 4.37114e-08 244.417 28.7981)" fill="#9536C1"/>
<circle r="2.49581" transform="matrix(-4.37114e-08 1 1 4.37114e-08 69.6573 56.5735)" fill="#96FFFF"/>
<circle r="2.49581" transform="matrix(-4.37114e-08 1 1 4.37114e-08 56.679 80.4251)" fill="#96FFFF"/>
<circle r="2.49581" transform="matrix(-4.37114e-08 1 1 4.37114e-08 33.7594 109.496)" fill="#96FFFF"/>
<ellipse rx="2.49581" ry="2.32943" transform="matrix(-4.37114e-08 1 1 4.37114e-08 28.2268 84.6347)" fill="#96FFFF"/>
<circle r="2.49581" transform="matrix(-4.37114e-08 1 1 4.37114e-08 221.936 29.5732)" fill="#F54A4A"/>
<circle r="2.49581" transform="matrix(-4.37114e-08 1 1 4.37114e-08 83.301 90.7411)" fill="#9536C1"/>
<circle r="2.49581" transform="matrix(-4.37114e-08 1 1 4.37114e-08 103.6 119.36)" fill="#9536C1"/>
<circle r="2.49581" transform="matrix(-4.37114e-08 1 1 4.37114e-08 44.7594 114.496)" fill="#F54A4A"/>
<circle r="2.49581" transform="matrix(-4.37114e-08 1 1 4.37114e-08 8.75936 103.603)" fill="#F54A4A"/>
<circle r="2.49581" transform="matrix(-4.37114e-08 1 1 4.37114e-08 232.014 48.953)" fill="#F54A4A"/>
<circle r="2.49581" transform="matrix(-4.37114e-08 1 1 4.37114e-08 179.14 36.2658)" fill="#F54A4A"/>
<circle r="2.49581" transform="matrix(-4.37114e-08 1 1 4.37114e-08 160.838 95.7328)" fill="#F54A4A"/>
<circle r="1.99581" transform="matrix(-4.37114e-08 1 1 4.37114e-08 43.0352 91.1821)" fill="#9536C1" stroke="black"/>
<circle r="2.49581" transform="matrix(-4.37114e-08 1 1 4.37114e-08 74.6489 73.986)" fill="#9536C1"/>
<ellipse cx="33.593" cy="151.496" rx="2.49581" ry="2.32943" transform="rotate(90 33.593 151.496)" fill="#96FFFF"/>
<circle cx="199.391" cy="55.1544" r="2.49581" transform="rotate(90 199.391 55.1544)" fill="#96FFFF"/>
<ellipse cx="126.588" cy="106.15" rx="2.32943" ry="2.49581" transform="rotate(90 126.588 106.15)" fill="#96FFFF"/>
<circle cx="99.593" cy="144.329" r="2.32943" transform="rotate(90 99.593 144.329)" fill="#96FFFF"/>
<path d="M158.588 152.27C157.209 152.27 156.092 151.153 156.092 149.775C156.092 148.396 157.209 147.279 158.588 147.279C159.966 147.279 161.084 148.396 161.084 149.775C161.084 151.153 159.966 152.27 158.588 152.27Z" fill="#96FFFF"/>
<circle cx="170.439" cy="135.362" r="2.49581" transform="rotate(90 170.439 135.362)" fill="#96FFFF"/>
<circle cx="212.369" cy="79.0061" r="2.49581" transform="rotate(90 212.369 79.0061)" fill="#96FFFF"/>
<ellipse cx="240.821" cy="83.2157" rx="2.49581" ry="2.32943" transform="rotate(90 240.821 83.2157)" fill="#96FFFF"/>
<circle cx="249.307" cy="92.4252" r="2.49581" transform="rotate(90 249.307 92.4252)" fill="#9536C1"/>
<circle cx="258.292" cy="118.715" r="2.49581" transform="rotate(90 258.292 118.715)" fill="#9536C1"/>
<circle cx="145.481" cy="78.2241" r="2.49581" transform="rotate(90 145.481 78.2241)" fill="#9536C1"/>
<circle cx="270.272" cy="75.7865" r="2.49581" transform="rotate(90 270.272 75.7865)" fill="#9536C1"/>
<circle cx="257.959" cy="55.2625" r="2.49581" transform="rotate(90 257.959 55.2625)" fill="#9536C1"/>
<circle cx="194.399" cy="72.5669" r="2.49581" transform="rotate(90 194.399 72.5669)" fill="#9536C1"/>
<circle cx="214.366" cy="106.185" r="2.49581" transform="rotate(90 214.366 106.185)" fill="#96FFFF"/>
<circle cx="227.344" cy="130.037" r="2.49581" transform="rotate(90 227.344 130.037)" fill="#96FFFF"/>
<path d="M66.9082 174.704C65.5298 174.704 64.4124 173.586 64.4124 172.208C64.4124 170.83 65.5298 169.712 66.9082 169.712C68.2866 169.712 69.4041 170.83 69.4041 172.208C69.4041 173.586 68.2866 174.704 66.9082 174.704Z" fill="#96FFFF"/>
<ellipse cx="255.796" cy="134.247" rx="2.49581" ry="2.32943" transform="rotate(90 255.796 134.247)" fill="#96FFFF"/>
<ellipse cx="197.593" cy="19.4958" rx="2.49581" ry="2.32943" transform="rotate(90 197.593 19.4958)" fill="#96FFFF"/>
<circle cx="233.564" cy="153.603" r="2.49581" transform="rotate(90 233.564 153.603)" fill="#F54A4A"/>
<circle cx="200.722" cy="140.353" r="2.49581" transform="rotate(90 200.722 140.353)" fill="#9536C1"/>
<circle cx="186.277" cy="106.317" r="2.49581" transform="rotate(90 186.277 106.317)" fill="#9536C1"/>
<circle cx="262.759" cy="163.496" r="2.49581" transform="rotate(90 262.759 163.496)" fill="#F54A4A"/>
<path d="M272.768 119.665C271.389 119.665 270.272 118.548 270.272 117.169C270.272 115.791 271.389 114.674 272.768 114.674C274.146 114.674 275.264 115.791 275.264 117.169C275.264 118.548 274.146 119.665 272.768 119.665Z" fill="#F54A4A"/>
<circle cx="235.663" cy="70.354" r="2.49581" transform="rotate(90 235.663 70.354)" fill="#F54A4A"/>
<circle cx="106.433" cy="77.6348" r="2.49581" transform="rotate(90 106.433 77.6348)" fill="#F54A4A"/>
<circle cx="123.185" cy="145.345" r="2.49581" transform="rotate(90 123.185 145.345)" fill="#F54A4A"/>
<circle cx="240.988" cy="140.794" r="1.99581" transform="rotate(90 240.988 140.794)" fill="#9536C1" stroke="black"/>
<circle cx="209.374" cy="123.598" r="2.49581" transform="rotate(90 209.374 123.598)" fill="#9536C1"/>
</g>
<defs>
<linearGradient id="paint0_linear" x1="152.869" y1="133.464" x2="152.869" y2="140.429" gradientUnits="userSpaceOnUse">
<stop stop-color="#F54A4A"/>
<stop offset="1" stop-color="white" stop-opacity="0"/>
</linearGradient>
<linearGradient id="paint1_linear" x1="182.927" y1="124.923" x2="182.927" y2="139.98" gradientUnits="userSpaceOnUse">
<stop stop-color="#96FFFF"/>
<stop offset="1" stop-color="white" stop-opacity="0"/>
</linearGradient>
<linearGradient id="paint2_linear" x1="213.505" y1="131.443" x2="213.505" y2="165.223" gradientUnits="userSpaceOnUse">
<stop stop-color="#F54A4A"/>
<stop offset="1" stop-color="white" stop-opacity="0"/>
</linearGradient>
<linearGradient id="paint3_linear" x1="187.479" y1="139.25" x2="187.479" y2="161.586" gradientUnits="userSpaceOnUse">
<stop stop-color="#96FFFF"/>
<stop offset="1" stop-color="white" stop-opacity="0"/>
</linearGradient>
<linearGradient id="paint4_linear" x1="149.233" y1="90.0493" x2="149.233" y2="157.628" gradientUnits="userSpaceOnUse">
<stop offset="0.635417" stop-color="white" stop-opacity="0"/>
<stop offset="1" stop-color="#F54A4A"/>
</linearGradient>
<linearGradient id="paint5_linear" x1="149.233" y1="90.0493" x2="149.233" y2="157.628" gradientUnits="userSpaceOnUse">
<stop offset="0.671875" stop-color="#BE4AF5"/>
<stop offset="1" stop-color="white" stop-opacity="0"/>
</linearGradient>
<linearGradient id="paint6_linear" x1="149.233" y1="90.0493" x2="149.233" y2="157.628" gradientUnits="userSpaceOnUse">
<stop offset="0.015625" stop-color="#96FFFF"/>
<stop offset="0.161458" stop-color="white" stop-opacity="0"/>
</linearGradient>
<linearGradient id="paint7_linear" x1="113.078" y1="30.7439" x2="113.078" y2="145.444" gradientUnits="userSpaceOnUse">
<stop stop-color="#96FFFF"/>
<stop offset="0.786458" stop-color="#F54A4A"/>
</linearGradient>
<linearGradient id="paint8_linear" x1="154.089" y1="113.257" x2="154.089" y2="160.938" gradientUnits="userSpaceOnUse">
<stop stop-color="#F54A4A"/>
<stop offset="1" stop-color="white" stop-opacity="0"/>
</linearGradient>
<linearGradient id="paint9_linear" x1="69.3114" y1="12.173" x2="69.3114" y2="130.362" gradientUnits="userSpaceOnUse">
<stop stop-color="#F54A4A"/>
<stop offset="1" stop-color="white" stop-opacity="0"/>
</linearGradient>
<linearGradient id="paint10_linear" x1="78.7004" y1="20.5987" x2="78.7004" y2="80.9215" gradientUnits="userSpaceOnUse">
<stop stop-color="#F54A4A"/>
<stop offset="1" stop-color="white" stop-opacity="0"/>
</linearGradient>
<linearGradient id="paint11_linear" x1="207.055" y1="17.2975" x2="207.055" y2="127.717" gradientUnits="userSpaceOnUse">
<stop stop-color="#F54A4A"/>
<stop offset="1" stop-color="white" stop-opacity="0"/>
</linearGradient>
<linearGradient id="paint12_linear" x1="134.881" y1="50.879" x2="134.881" y2="86.0963" gradientUnits="userSpaceOnUse">
<stop stop-color="#F54A4A"/>
<stop offset="1" stop-color="white" stop-opacity="0"/>
</linearGradient>
<linearGradient id="paint13_linear" x1="181.584" y1="-0.0471027" x2="181.584" y2="205.199" gradientUnits="userSpaceOnUse">
<stop offset="0.541667" stop-color="#96FFFF"/>
<stop offset="1" stop-color="white" stop-opacity="0"/>
</linearGradient>
<linearGradient id="paint14_linear" x1="-60.7086" y1="5.80763" x2="-60.7086" y2="211.054" gradientUnits="userSpaceOnUse">
<stop offset="0.541667" stop-color="#96FFFF"/>
<stop offset="1" stop-color="white" stop-opacity="0"/>
</linearGradient>
</defs>
</svg>
