<svg width="315" height="223" viewBox="20 25 315 223" fill="none" xmlns="http://www.w3.org/2000/svg">
<path d="M159.119 150.838C156.49 148.276 159.119 160.5 125 154C113.605 151.829 115.501 176.705 118.5 186" stroke="#9536C1"/>
<path d="M159.119 150.838C156.49 148.276 159.119 160.5 125 154C113.605 151.829 115.501 176.705 118.5 186" stroke="url(#paint0_linear)"/>
<path d="M47 178.5C48 173 52.9 163.1 64.5 167.5C76.1 171.9 85.3333 180.667 88.5 184.5" stroke="#BE4AF5"/>
<path d="M47 178.5C48 173 52.9 163.1 64.5 167.5C76.1 171.9 85.3333 180.667 88.5 184.5" stroke="url(#paint1_linear)"/>
<path d="M253.5 170C243.333 171.333 228.9 180.2 238.5 197C248.1 213.8 271.833 213.667 282.5 211.5M255 146C257.5 147.167 278.247 143.928 270 126C258.5 101 339.5 67.5 313.5 141M183.5 155C178.833 157.167 171.6 164.3 180 175.5C190.5 189.5 200 188.5 210 183.5C218 179.5 228.667 172.833 233 170M255 70C259.5 49.5 291.5 19 311 54M192.5 60.5001C198.5 83.5001 215 47.0001 227 75.0001" stroke="#9536C1"/>
<path d="M253.5 170C243.333 171.333 228.9 180.2 238.5 197C248.1 213.8 271.833 213.667 282.5 211.5M255 146C257.5 147.167 278.247 143.928 270 126C258.5 101 339.5 67.5 313.5 141M183.5 155C178.833 157.167 171.6 164.3 180 175.5C190.5 189.5 200 188.5 210 183.5C218 179.5 228.667 172.833 233 170M255 70C259.5 49.5 291.5 19 311 54M192.5 60.5001C198.5 83.5001 215 47.0001 227 75.0001" stroke="url(#paint2_linear)"/>
<path d="M253.5 170C243.333 171.333 228.9 180.2 238.5 197C248.1 213.8 271.833 213.667 282.5 211.5M255 146C257.5 147.167 278.247 143.928 270 126C258.5 101 339.5 67.5 313.5 141M183.5 155C178.833 157.167 171.6 164.3 180 175.5C190.5 189.5 200 188.5 210 183.5C218 179.5 228.667 172.833 233 170M255 70C259.5 49.5 291.5 19 311 54M192.5 60.5001C198.5 83.5001 215 47.0001 227 75.0001" stroke="url(#paint3_linear)"/>
<path d="M253.5 170C243.333 171.333 228.9 180.2 238.5 197C248.1 213.8 271.833 213.667 282.5 211.5M255 146C257.5 147.167 278.247 143.928 270 126C258.5 101 339.5 67.5 313.5 141M183.5 155C178.833 157.167 171.6 164.3 180 175.5C190.5 189.5 200 188.5 210 183.5C218 179.5 228.667 172.833 233 170M255 70C259.5 49.5 291.5 19 311 54M192.5 60.5001C198.5 83.5001 215 47.0001 227 75.0001" stroke="url(#paint4_linear)"/>
<path d="M152 113C154.5 110.5 153.4 102.7 153 93.5C152.5 82 145.5 75.5 137 74.5C130.2 73.7 119.167 79.1666 114.5 82" stroke="#96FFFF"/>
<path d="M152 113C154.5 110.5 153.4 102.7 153 93.5C152.5 82 145.5 75.5 137 74.5C130.2 73.7 119.167 79.1666 114.5 82" stroke="url(#paint5_linear)"/>
<path d="M66 63C61.8333 66.5 73 115 100.5 101" stroke="#4A51F5"/>
<path d="M66 63C61.8333 66.5 73 115 100.5 101" stroke="url(#paint6_linear)"/>
<path d="M47 117.5C52.5 128.5 59.5 153 79 150C94.6 147.6 113.167 123 120.5 111M166.5 216.5C131 237 162 189 120.5 195.5" stroke="#4A51F5"/>
<path d="M47 117.5C52.5 128.5 59.5 153 79 150C94.6 147.6 113.167 123 120.5 111M166.5 216.5C131 237 162 189 120.5 195.5" stroke="url(#paint7_linear)"/>
<path d="M217.5 115.5C217.667 119.167 227.9 123.5 239.5 123.5C251.1 123.5 255.333 108.833 259.5 100" stroke="#9536C1"/>
<path d="M217.5 115.5C217.667 119.167 227.9 123.5 239.5 123.5C251.1 123.5 255.333 108.833 259.5 100" stroke="url(#paint8_linear)"/>
<path d="M127.072 183.461C135.579 186.997 135.184 199.18 126.466 202.158L122.143 203.635C119.382 204.578 117.17 206.68 116.088 209.391L114.611 213.092C111.143 221.778 98.7127 221.375 95.8152 212.483L94.5805 208.694C93.6765 205.919 91.6056 203.678 88.9109 202.558L84.6925 200.804C76.1855 197.268 76.5804 185.085 85.2984 182.107L89.6216 180.63C92.3831 179.687 94.5948 177.585 95.6766 174.874L97.154 171.173C100.621 162.487 113.052 162.89 115.949 171.782L117.184 175.571C118.088 178.346 120.159 180.587 122.854 181.707L127.072 183.461Z" fill="#9536C1"/>
<path d="M168.545 91.1267C173.417 78.4638 191.647 79.4335 195.149 92.542C196.715 98.4042 201.877 102.592 207.936 102.914C221.485 103.635 226.196 121.272 214.811 128.653C209.72 131.953 207.333 138.157 208.899 144.019C212.4 157.128 197.082 167.059 186.544 158.512C181.832 154.689 175.194 154.336 170.102 157.637C158.717 165.018 144.539 153.518 149.411 140.855C151.59 135.192 149.875 128.77 145.162 124.948C134.625 116.401 141.18 99.3627 154.729 100.083C160.789 100.406 166.366 96.7898 168.545 91.1267Z" fill="#96FFFF"/>
<path d="M259.11 145.34C268.341 146.316 271.377 158.249 263.734 163.518L261.22 165.251C258.817 166.908 257.257 169.531 256.95 172.434L256.629 175.471C255.654 184.702 243.72 187.738 238.451 180.095L236.718 177.581C235.062 175.178 232.438 173.618 229.536 173.311L226.499 172.99C217.267 172.015 214.231 160.081 221.874 154.812L224.389 153.079C226.792 151.423 228.351 148.799 228.658 145.897L228.979 142.86C229.955 133.628 241.889 130.592 247.157 138.235L248.89 140.75C250.547 143.153 253.17 144.712 256.073 145.019L259.11 145.34Z" fill="#9536C1"/>
<path d="M110.769 80.9094C114.469 74.4701 124.183 76.1087 125.566 83.4053L126.225 86.8853C126.66 89.1793 128.075 91.1689 130.1 92.3321L133.171 94.0967C139.61 97.7965 137.971 107.51 130.675 108.893L127.195 109.553C124.901 109.988 122.911 111.403 121.748 113.427L119.983 116.498C116.284 122.937 106.57 121.299 105.187 114.002L104.527 110.522C104.093 108.228 102.677 106.239 100.653 105.076L97.5818 103.311C91.1426 99.6111 92.7812 89.8972 100.078 88.5144L103.558 87.8549C105.852 87.4201 107.841 86.0048 109.005 83.9804L110.769 80.9094Z" fill="#9536C1"/>
<path d="M251.32 63.2178C259.013 59.4836 267.089 67.576 263.338 75.2616L261.667 78.6862C260.454 81.1712 260.451 84.0757 261.658 86.5633L263.322 89.9915C267.057 97.685 258.964 105.76 251.279 102.01L247.854 100.338C245.369 99.1257 242.464 99.1226 239.977 100.33L236.549 101.994C228.855 105.728 220.78 97.6356 224.531 89.9501L226.202 86.5254C227.414 84.0405 227.418 81.136 226.21 78.6484L224.546 75.2202C220.812 67.5267 228.904 59.4514 236.59 63.2021L240.015 64.8733C242.5 66.086 245.404 66.0891 247.892 64.8817L251.32 63.2178Z" fill="#9536C1"/>
<path d="M285.823 229.269C275.243 230.613 268.298 218.52 274.791 210.06L278.453 205.287C279.08 204.469 279.6 203.574 279.999 202.624L282.326 197.076C286.452 187.242 300.397 187.274 304.478 197.127L306.78 202.685C307.175 203.637 307.69 204.534 308.314 205.355L311.954 210.144C318.408 218.634 311.408 230.696 300.835 229.303L294.87 228.518C293.848 228.383 292.814 228.381 291.791 228.511L285.823 229.269Z" fill="#373DC9"/>
<path d="M287.023 148.512C281.889 142.021 287.5 132.626 295.65 134.067L305.171 135.751C306.12 135.919 307.09 135.933 308.044 135.793L317.61 134.391C325.799 133.19 331.13 142.747 325.807 149.084L319.588 156.488C318.968 157.226 318.471 158.059 318.115 158.955L314.547 167.941C311.492 175.632 300.55 175.471 297.723 167.693L294.421 158.605C294.092 157.699 293.619 156.852 293.021 156.096L287.023 148.512Z" fill="#373DC9"/>
<path d="M194.679 32.0131C202.703 31.2712 207.583 40.6378 202.378 46.7887L198.298 51.6097C197.773 52.2311 197.333 52.9209 196.993 53.6603L194.352 59.3973C190.983 66.7168 180.431 66.2601 177.707 58.6768L175.572 52.7331C175.296 51.967 174.919 51.2418 174.448 50.5774L170.8 45.4219C166.146 38.8442 171.818 29.9343 179.747 31.3667L185.962 32.4894C186.763 32.6341 187.58 32.6695 188.391 32.5945L194.679 32.0131Z" fill="#373DC9"/>
<path d="M306.178 44.6604C311.823 38.9099 321.6 42.9054 321.601 50.9632L321.602 57.65C321.602 58.464 321.713 59.2742 321.931 60.0585L323.722 66.501C325.88 74.2645 317.531 80.7338 310.552 76.7062L304.76 73.3639C304.055 72.957 303.298 72.6477 302.51 72.4443L296.035 70.7738C288.233 68.7608 286.805 58.296 293.782 54.2658L299.573 50.9213C300.278 50.5142 300.924 50.0133 301.494 49.4324L306.178 44.6604Z" fill="#373DC9"/>
<path d="M29.8928 106.418C26.0074 99.359 32.6445 91.1431 40.3627 93.4577L43.7889 94.4852C44.5685 94.719 45.3764 94.846 46.1902 94.8626L49.7664 94.9357C57.8225 95.1005 61.6191 104.956 55.7555 110.483L53.1526 112.937C52.5602 113.495 52.0464 114.131 51.625 114.827L49.7736 117.888C45.6029 124.782 35.1692 123.142 33.3146 115.301L32.4914 111.82C32.304 111.028 32.0101 110.265 31.6176 109.552L29.8928 106.418Z" fill="#373DC9"/>
<path d="M36.9807 173.314C42.6251 167.564 52.4021 171.559 52.4035 179.617L52.4042 183.194C52.4043 184.008 52.5149 184.818 52.7329 185.603L53.6908 189.049C55.8486 196.812 47.4999 203.282 40.5209 199.254L37.4229 197.466C36.7179 197.059 35.9609 196.75 35.1727 196.547L31.7092 195.653C23.9069 193.64 22.4787 183.175 29.4562 179.145L32.5536 177.356C33.2584 176.949 33.9048 176.448 34.475 175.867L36.9807 173.314Z" fill="#373DC9"/>
<path d="M162.926 222.831C158.981 215.805 165.548 207.534 173.286 209.783L179.519 211.595C180.3 211.822 181.109 211.942 181.923 211.952L188.414 212.029C196.471 212.126 200.351 221.949 194.534 227.526L189.849 232.018C189.261 232.581 188.753 233.221 188.337 233.921L185.025 239.503C180.912 246.433 170.465 244.881 168.544 237.056L166.997 230.752C166.803 229.962 166.502 229.201 166.104 228.491L162.926 222.831Z" fill="#373DC9"/>
<path d="M60.6189 47.107C59.4328 39.137 68.5142 33.7443 74.9445 38.6001L77.799 40.7557C78.4486 41.2462 79.1617 41.6464 79.9189 41.9452L83.2461 43.2582C90.7413 46.2161 90.8709 56.7772 83.4505 59.918L80.1565 61.3123C79.4068 61.6296 78.7037 62.0471 78.0664 62.5534L75.2656 64.7784C68.9564 69.7905 59.7455 64.6222 60.7356 56.6255L61.1752 53.0756C61.2752 52.2678 61.2652 51.4501 61.1453 50.645L60.6189 47.107Z" fill="#373DC9"/>
<defs>
<linearGradient id="paint0_linear" x1="122.148" y1="123.812" x2="115.473" y2="187.622" gradientUnits="userSpaceOnUse">
<stop stop-color="#96FFFF"/>
<stop offset="0.828125" stop-color="white" stop-opacity="0"/>
</linearGradient>
<linearGradient id="paint1_linear" x1="67.75" y1="166.404" x2="166.5" y2="156" gradientUnits="userSpaceOnUse">
<stop stop-color="#4A51F5"/>
<stop offset="0.130208" stop-color="white" stop-opacity="0"/>
</linearGradient>
<linearGradient id="paint2_linear" x1="250.175" y1="59.7215" x2="229" y2="68.5" gradientUnits="userSpaceOnUse">
<stop stop-color="#373DC9"/>
<stop offset="1" stop-color="white" stop-opacity="0"/>
</linearGradient>
<linearGradient id="paint3_linear" x1="240" y1="21" x2="270.5" y2="47" gradientUnits="userSpaceOnUse">
<stop stop-color="#4A51F5"/>
<stop offset="1" stop-color="white" stop-opacity="0"/>
</linearGradient>
<linearGradient id="paint4_linear" x1="284.5" y1="200.5" x2="283.5" y2="166.5" gradientUnits="userSpaceOnUse">
<stop stop-color="#373DC9"/>
<stop offset="1" stop-color="white" stop-opacity="0"/>
</linearGradient>
<linearGradient id="paint5_linear" x1="134.537" y1="74.2233" x2="134.537" y2="112.95" gradientUnits="userSpaceOnUse">
<stop stop-color="#4A51F5"/>
<stop offset="1" stop-color="white" stop-opacity="0"/>
</linearGradient>
<linearGradient id="paint6_linear" x1="90.5823" y1="59.708" x2="90.5823" y2="116.939" gradientUnits="userSpaceOnUse">
<stop stop-color="#4AA3F5"/>
<stop offset="1" stop-color="white" stop-opacity="0"/>
</linearGradient>
<linearGradient id="paint7_linear" x1="108.5" y1="102.5" x2="74.5" y2="129" gradientUnits="userSpaceOnUse">
<stop offset="0.265625" stop-color="#9536C1"/>
<stop offset="1" stop-color="white" stop-opacity="0"/>
</linearGradient>
<linearGradient id="paint8_linear" x1="226" y1="160.5" x2="274.5" y2="118.5" gradientUnits="userSpaceOnUse">
<stop offset="0.421875" stop-color="#96FFFF"/>
<stop offset="1" stop-color="white" stop-opacity="0"/>
</linearGradient>
</defs>
</svg>
