<svg width="233" height="317" viewBox="0 0 233 317" fill="none" xmlns="http://www.w3.org/2000/svg">
<g filter="url(#filter0_d)">
<path d="M152.814 154.687C153.64 157.199 157.248 160.45 165.073 153.357C172.899 146.264 178.425 138.226 180.21 135.094M126.202 145.5C115.184 145.729 99.5828 134.79 113.225 125.501C140.289 107.071 91.0168 84.3152 93.0024 84.5006M95.4087 185.263C97.9445 189.23 104.583 196.794 110.848 195.305C117.114 193.816 127.801 178.193 132.362 170.568M93.0024 192.107C90.8718 197.682 106.883 201.427 90.7251 236.501C71.6061 278.001 140.748 266.028 145.225 263.501" stroke="#BE4AF5"/>
<path d="M152.814 154.687C153.64 157.199 157.248 160.45 165.073 153.357C172.899 146.264 178.425 138.226 180.21 135.094M126.202 145.5C115.184 145.729 99.5828 134.79 113.225 125.501C140.289 107.071 91.0168 84.3152 93.0024 84.5006M95.4087 185.263C97.9445 189.23 104.583 196.794 110.848 195.305C117.114 193.816 127.801 178.193 132.362 170.568M93.0024 192.107C90.8718 197.682 106.883 201.427 90.7251 236.501C71.6061 278.001 140.748 266.028 145.225 263.501" stroke="url(#paint0_linear)"/>
<path d="M152.814 154.687C153.64 157.199 157.248 160.45 165.073 153.357C172.899 146.264 178.425 138.226 180.21 135.094M126.202 145.5C115.184 145.729 99.5828 134.79 113.225 125.501C140.289 107.071 91.0168 84.3152 93.0024 84.5006M95.4087 185.263C97.9445 189.23 104.583 196.794 110.848 195.305C117.114 193.816 127.801 178.193 132.362 170.568M93.0024 192.107C90.8718 197.682 106.883 201.427 90.7251 236.501C71.6061 278.001 140.748 266.028 145.225 263.501" stroke="url(#paint1_linear)"/>
<path d="M76 76C10 82 58.9999 141.167 70.4999 137.5" stroke="#373DC9"/>
<path d="M76 76C10 82 58.9999 141.167 70.4999 137.5" stroke="url(#paint2_linear)"/>
<path d="M71.0001 186C57.5001 188 47.5 187.5 42 201C37.6 211.8 46 228 54 229.5" stroke="#BE4AF5"/>
<path d="M71.0001 186C57.5001 188 47.5 187.5 42 201C37.6 211.8 46 228 54 229.5" stroke="url(#paint3_linear)"/>
<path d="M165.5 156.5C195.5 163.5 214 159 217 175C219.4 187.8 196.333 206.667 184.5 214.5" stroke="#96FFFF"/>
<path d="M165.5 156.5C195.5 163.5 214 159 217 175C219.4 187.8 196.333 206.667 184.5 214.5" stroke="url(#paint4_linear)"/>
<path d="M107 77C111.833 78.8334 149 86 137.5 62.5C127.39 41.8411 131.5 21.5 161 28" stroke="url(#paint5_linear)"/>
<path d="M120.589 159.965C113.475 154.495 117.479 143.095 126.452 143.276C130.44 143.356 134.05 140.833 135.372 137.069C138.327 128.658 150.38 128.832 152.885 137.387C154.011 141.232 157.506 143.902 161.511 143.982C170.423 144.162 173.728 155.776 166.424 160.885C163.149 163.175 161.669 167.389 162.792 171.223C165.297 179.779 155.454 186.774 148.387 181.34C145.211 178.898 140.815 178.796 137.532 181.092C130.227 186.201 120.713 178.798 123.668 170.387C124.99 166.623 123.751 162.397 120.589 159.965Z" fill="#96FFFF"/>
<path d="M191.369 102.892C199.939 99.3247 208.349 108.374 204.165 116.66C202.85 119.266 202.738 122.334 203.859 125.028C207.426 133.598 198.377 142.009 190.09 137.825C187.485 136.509 184.417 136.397 181.723 137.518C173.153 141.085 164.742 132.036 168.926 123.75C170.242 121.144 170.354 118.077 169.233 115.382C165.665 106.812 174.715 98.4015 183.001 102.586C185.607 103.901 188.674 104.013 191.369 102.892Z" fill="#9536C1"/>
<path d="M104.029 172.605C113.261 173.58 116.307 185.553 108.663 190.821C106.26 192.478 104.692 195.117 104.385 198.019C103.409 207.251 91.4369 210.296 86.1684 202.653C84.512 200.25 81.8731 198.682 78.9707 198.375C69.739 197.399 66.6934 185.427 74.3366 180.158C76.7396 178.502 78.3081 175.863 78.6148 172.96C79.5906 163.729 91.5631 160.683 96.8316 168.326C98.488 170.729 101.127 172.298 104.029 172.605Z" fill="#9536C1"/>
<path d="M191.029 190.274C200.261 191.25 203.307 203.222 195.663 208.491C193.26 210.147 191.692 212.786 191.385 215.689C190.409 224.92 178.437 227.966 173.168 220.323C171.512 217.92 168.873 216.351 165.971 216.045C156.739 215.069 153.693 203.096 161.336 197.828C163.739 196.171 165.308 193.532 165.615 190.63C166.591 181.398 178.563 178.353 183.832 185.996C185.488 188.399 188.127 189.967 191.029 190.274Z" fill="#9536C1"/>
<path d="M67.8928 135.808C64.0074 128.749 70.6445 120.533 78.3627 122.847L81.7889 123.875C82.5685 124.109 83.3764 124.236 84.1902 124.252L87.7664 124.325C95.8225 124.49 99.6191 134.346 93.7555 139.873L91.1526 142.326C90.5602 142.885 90.0464 143.521 89.625 144.217L87.7736 147.278C83.6029 154.172 73.1692 152.532 71.3146 144.691L70.4914 141.21C70.304 140.418 70.0101 139.655 69.6176 138.941L67.8928 135.808Z" fill="#373DC9"/>
<path d="M156.619 34.436C155.433 26.466 164.514 21.0733 170.944 25.9291L173.799 28.0847C174.449 28.5752 175.162 28.9754 175.919 29.2742L179.246 30.5872C186.741 33.5451 186.871 44.1062 179.45 47.247L176.156 48.6413C175.407 48.9586 174.704 49.3761 174.066 49.8824L171.266 52.1074C164.956 57.1195 155.745 51.9512 156.736 43.9545L157.175 40.4046C157.275 39.5968 157.265 38.7791 157.145 37.974L156.619 34.436Z" fill="#373DC9"/>
<path d="M133.818 257.84C128.684 251.349 134.295 241.954 142.445 243.395L153.306 245.316C154.255 245.484 155.225 245.498 156.178 245.358L167.091 243.758C175.28 242.558 180.611 252.115 175.288 258.452L168.194 266.897C167.574 267.635 167.077 268.468 166.721 269.364L162.65 279.614C159.596 287.306 148.653 287.145 145.827 279.366L142.06 269C141.731 268.094 141.258 267.247 140.66 266.491L133.818 257.84Z" fill="#373DC9"/>
<path d="M49.2922 259.943C38.7124 261.287 31.767 249.194 38.2596 240.733L41.9219 235.96C42.5494 235.143 43.0688 234.248 43.4675 233.297L45.7948 227.75C49.9206 217.915 63.8661 217.947 67.9472 227.8L70.2492 233.358C70.6436 234.31 71.159 235.208 71.7827 236.028L75.4233 240.818C81.8774 249.308 74.8771 261.369 64.3035 259.977L58.3392 259.192C57.3173 259.057 56.2825 259.055 55.2601 259.185L49.2922 259.943Z" fill="#373DC9"/>
<path d="M91.0966 62.5687C94.7965 56.1295 104.51 57.7681 105.893 65.0647L106.553 68.5446C106.987 70.8386 108.403 72.8282 110.427 73.9915L113.498 75.756C119.937 79.4559 118.299 89.1698 111.002 90.5526L107.522 91.2121C105.228 91.6469 103.239 93.0621 102.075 95.0866L100.311 98.1576C96.6111 104.597 86.8972 102.958 85.5144 95.6617L84.8548 92.1817C84.4201 89.8877 83.0048 87.8981 80.9804 86.7349L77.9093 84.9703C71.4701 81.2704 73.1087 71.5566 80.4053 70.1737L83.8852 69.5142C86.1793 69.0795 88.1689 67.6642 89.3321 65.6397L91.0966 62.5687Z" fill="#9536C1"/>
</g>
<defs>
<filter id="filter0_d" x="22.8759" y="17.7137" width="198.798" height="278.95" filterUnits="userSpaceOnUse" color-interpolation-filters="sRGB">
<feFlood flood-opacity="0" result="BackgroundImageFix"/>
<feColorMatrix in="SourceAlpha" type="matrix" values="0 0 0 0 0 0 0 0 0 0 0 0 0 0 0 0 0 0 127 0"/>
<feOffset dy="4"/>
<feGaussianBlur stdDeviation="2"/>
<feColorMatrix type="matrix" values="0 0 0 0 0 0 0 0 0 0 0 0 0 0 0 0 0 0 0.25 0"/>
<feBlend mode="normal" in2="BackgroundImageFix" result="effect1_dropShadow"/>
<feBlend mode="normal" in="SourceGraphic" in2="effect1_dropShadow" result="shape"/>
</filter>
<linearGradient id="paint0_linear" x1="145.225" y1="112.341" x2="100.225" y2="105.841" gradientUnits="userSpaceOnUse">
<stop stop-color="#96FFFF"/>
<stop offset="0.0001" stop-color="#ADFFFF" stop-opacity="0.782927"/>
<stop offset="1" stop-color="white" stop-opacity="0"/>
</linearGradient>
<linearGradient id="paint1_linear" x1="168" y1="275.5" x2="180" y2="235" gradientUnits="userSpaceOnUse">
<stop stop-color="#373DC9"/>
<stop offset="1" stop-color="white" stop-opacity="0"/>
</linearGradient>
<linearGradient id="paint2_linear" x1="51.7265" y1="70.595" x2="47.5" y2="142" gradientUnits="userSpaceOnUse">
<stop offset="0.144109" stop-color="#9536C1"/>
<stop offset="1" stop-color="white" stop-opacity="0"/>
</linearGradient>
<linearGradient id="paint3_linear" x1="53.3278" y1="186" x2="124.5" y2="141" gradientUnits="userSpaceOnUse">
<stop stop-color="#373DC9"/>
<stop offset="0.102887" stop-color="white" stop-opacity="0"/>
</linearGradient>
<linearGradient id="paint4_linear" x1="191.337" y1="156.5" x2="199" y2="184" gradientUnits="userSpaceOnUse">
<stop stop-color="white" stop-opacity="0"/>
<stop offset="1" stop-color="#9536C1"/>
</linearGradient>
<linearGradient id="paint5_linear" x1="134" y1="26.182" x2="134" y2="77.9016" gradientUnits="userSpaceOnUse">
<stop stop-color="#373DC9"/>
<stop offset="1" stop-color="#9536C1"/>
</linearGradient>
</defs>
</svg>
