<svg width="337" height="274" viewBox="0 10 354 288" fill="none" xmlns="http://www.w3.org/2000/svg">
<path d="M180.7 160.2C174.2 69.2 99.9 160.9 95.2 163.7" stroke="#4A51F5"/>
<path d="M180.7 160.2C174.2 69.2 99.9 160.9 95.2 163.7" stroke="url(#paint0_linear)"/>
<path d="M190.2 178C159.2 278 239.9 180.2 249.2 202.5C268.7 249 288.7 212.5 290.7 204" stroke="#96FFFF"/>
<path d="M190.2 178C159.2 278 239.9 180.2 249.2 202.5C268.7 249 288.7 212.5 290.7 204" stroke="url(#paint1_linear)"/>
<path d="M167.2 94.5C215.2 111 178.4 119.7 187.7 142" stroke="#96FFFF"/>
<path d="M167.2 94.5C215.2 111 178.4 119.7 187.7 142" stroke="url(#paint2_linear)"/>
<path d="M303.2 118C305.3 109.8 272.2 122 275.7 153.5C279.1 184.1 220.8 166.3 219 169.5" stroke="#BE4AF5"/>
<path d="M303.2 118C305.3 109.8 272.2 122 275.7 153.5C279.1 184.1 220.8 166.3 219 169.5" stroke="url(#paint3_linear)"/>
<path d="M216.2 148.5C253.7 136.5 259.2 111.5 234.7 102.5M131.7 93C103.2 15.5 61.7 68 67.2 81.5" stroke="#96FFFF"/>
<path d="M216.2 148.5C253.7 136.5 259.2 111.5 234.7 102.5" stroke="url(#paint4_linear)"/>
<path d="M131.7 93C103.2 15.5 61.7 68 67.2 81.5" stroke="url(#paint5_linear)"/>
<path d="M97.2297 121.412C109.504 113.487 125.758 121.804 126.511 136.395L126.901 143.959C127.178 149.324 129.714 154.322 133.88 157.714L139.754 162.496C151.084 171.72 148.197 189.748 134.553 194.973L127.48 197.682C122.462 199.603 118.493 203.559 116.555 208.57L113.822 215.634C108.55 229.26 90.5123 232.085 81.3264 220.724L76.5646 214.834C73.1868 210.656 68.1981 208.103 62.8336 207.808L55.271 207.392C40.6824 206.589 32.4215 190.307 40.3887 178.06L44.5188 171.711C47.4485 167.207 48.3346 161.674 46.9577 156.481L45.0166 149.16C41.2722 135.037 54.2042 122.149 68.3141 125.942L75.6285 127.908C80.8169 129.302 86.3533 128.435 90.8668 125.521L97.2297 121.412Z" fill="#373DC9"/>
<path d="M202.328 130.268C207.513 123.668 218.101 127.995 217.18 136.337C216.686 140.812 219.832 144.872 224.289 145.511C232.597 146.702 234.144 158.035 226.458 161.408C222.336 163.218 220.393 167.973 222.068 172.152C225.191 179.942 216.15 186.948 209.385 181.979C205.757 179.314 200.668 180.008 197.886 183.549C192.701 190.148 182.113 185.821 183.034 177.479C183.528 173.004 180.382 168.944 175.925 168.305C167.617 167.114 166.07 155.781 173.755 152.408C177.878 150.598 179.821 145.844 178.146 141.665C175.023 133.874 184.064 126.868 190.829 131.837C194.457 134.502 199.546 133.808 202.328 130.268Z" fill="#9536C1"/>
<path d="M232.234 76.7933C237.908 73.7229 244.196 79.7067 241.411 85.5257C240.165 88.1281 240.737 91.2366 242.827 93.2255C247.5 97.6728 243.752 105.502 237.357 104.651C234.497 104.271 231.718 105.775 230.472 108.377C227.686 114.196 219.082 113.051 217.915 106.706C217.393 103.869 215.104 101.69 212.244 101.309C205.849 100.458 204.279 91.9213 209.953 88.8509C212.49 87.4778 213.855 84.6269 213.333 81.7894C212.166 75.4444 219.8 71.3132 224.474 75.7606C226.564 77.7495 229.697 78.1664 232.234 76.7933Z" fill="#595C98"/>
<path d="M289.13 174.062C292.438 166.428 303.56 166.991 306.08 174.92C306.871 177.41 308.719 179.457 311.124 180.477C318.806 183.735 318.246 194.804 310.274 197.27C307.778 198.042 305.733 199.891 304.694 202.288C301.386 209.923 290.265 209.36 287.745 201.43C286.954 198.941 285.106 196.894 282.7 195.874C275.018 192.616 275.579 181.546 283.551 179.081C286.047 178.309 288.092 176.459 289.13 174.062Z" fill="#4B4D68"/>
<path d="M292.499 103.91C295.665 96.6035 306.226 97.1381 308.637 104.727C309.39 107.095 311.142 109.023 313.43 109.993C320.738 113.093 320.205 123.624 312.621 125.969C310.247 126.704 308.309 128.445 307.321 130.725C304.155 138.031 293.594 137.497 291.183 129.908C290.43 127.54 288.678 125.612 286.39 124.641C279.082 121.542 279.615 111.011 287.199 108.665C289.573 107.931 291.511 106.19 292.499 103.91Z" fill="#4B4D68"/>
<path d="M58.5569 76.0815C60.6652 69.947 69.3918 70.0943 71.2919 76.2965C72.1416 79.0702 74.6808 80.9813 77.5813 81.0303C84.0671 81.1397 86.6237 89.4847 81.3122 93.2084C78.9368 94.8737 77.9039 97.8791 78.7536 100.653C80.6537 106.855 73.5072 111.865 68.3244 107.964C66.0066 106.22 62.8291 106.166 60.4538 107.831C55.1423 111.555 48.1689 106.307 50.2773 100.172C51.2202 97.4286 50.2893 94.3901 47.9715 92.6456C42.7887 88.7447 45.6255 80.4908 52.1113 80.6003C55.0118 80.6492 57.614 78.8249 58.5569 76.0815Z" fill="#595C98"/>
<path d="M155.285 50.0818C161.788 44.2208 171.901 50.5506 169.471 58.9609C168.167 63.4724 170.678 68.2044 175.145 69.6534C183.472 72.3545 183.047 84.2772 174.548 86.3778C169.99 87.5047 167.147 92.0456 168.126 96.6386C169.95 105.201 159.412 110.794 153.344 104.484C150.088 101.099 144.735 100.908 141.246 104.052C134.744 109.913 124.631 103.583 127.061 95.1731C128.364 90.6616 125.853 85.9296 121.386 84.4807C113.059 81.7795 113.484 69.8569 121.983 67.7562C126.542 66.6293 129.384 62.0884 128.406 57.4954C126.581 48.9333 137.119 43.3405 143.188 49.6501C146.443 53.0347 151.797 53.2258 155.285 50.0818Z" fill="#96FFFF"/>
<defs>
<linearGradient id="paint0_linear" x1="172.245" y1="137.541" x2="138.744" y2="150.871" gradientUnits="userSpaceOnUse">
<stop stop-color="#9536C1"/>
<stop offset="0.8594" stop-color="white" stop-opacity="0"/>
</linearGradient>
<linearGradient id="paint1_linear" x1="181.055" y1="200.802" x2="237.778" y2="202.94" gradientUnits="userSpaceOnUse">
<stop offset="0.4875" stop-color="#BE4AF5"/>
<stop offset="1" stop-color="white" stop-opacity="0"/>
</linearGradient>
<linearGradient id="paint2_linear" x1="135.289" y1="116.527" x2="192.013" y2="118.665" gradientUnits="userSpaceOnUse">
<stop stop-color="white" stop-opacity="0"/>
<stop offset="1" stop-color="#BE4AF5"/>
</linearGradient>
<linearGradient id="paint3_linear" x1="271" y1="129.5" x2="253.648" y2="139.04" gradientUnits="userSpaceOnUse">
<stop offset="0.00170298" stop-color="#96FFFF"/>
<stop offset="0.74" stop-color="white" stop-opacity="0"/>
</linearGradient>
<linearGradient id="paint4_linear" x1="231.783" y1="129.752" x2="246.182" y2="147.225" gradientUnits="userSpaceOnUse">
<stop stop-color="#9536C1"/>
<stop offset="1" stop-color="white" stop-opacity="0"/>
</linearGradient>
<linearGradient id="paint5_linear" x1="105.369" y1="74.5221" x2="127.677" y2="47.4521" gradientUnits="userSpaceOnUse">
<stop stop-color="#9536C1"/>
<stop offset="1" stop-color="white" stop-opacity="0"/>
</linearGradient>
</defs>
</svg>
