<svg width="372" height="213" viewBox="0 0 378 213" fill="none" xmlns="http://www.w3.org/2000/svg">
<path d="M176.5 87.6483C155 81.5 112 66.6377 99.5 77.5C84.1809 90.812 90.1431 132.969 75 126.77M204.5 87.6483C239 87.6483 273.5 64.4655 287.5 77.5C298.371 87.6211 275 104 307 126.77" stroke="#4A51F5"/>
<path d="M176.5 87.6483C155 81.5 112 66.6377 99.5 77.5C84.1809 90.812 90.1431 132.969 75 126.77M204.5 87.6483C239 87.6483 273.5 64.4655 287.5 77.5C298.371 87.6211 275 104 307 126.77" stroke="url(#paint0_linear)"/>
<path d="M176.5 87.6483C155 81.5 112 66.6377 99.5 77.5C84.1809 90.812 90.1431 132.969 75 126.77M204.5 87.6483C239 87.6483 273.5 64.4655 287.5 77.5C298.371 87.6211 275 104 307 126.77" stroke="url(#paint1_linear)"/>
<path d="M295 29.3126C295 29.3126 268.145 24.1844 261.723 55.4668C255.301 86.7492 194 61.1079 194 61.1079" stroke="#96FFFF"/>
<path d="M295 29.3126C295 29.3126 268.145 24.1844 261.723 55.4668C255.301 86.7492 194 61.1079 194 61.1079" stroke="url(#paint2_linear)"/>
<path d="M195.963 48.9934C208.772 42.8883 223.391 52.9221 222.3 67.0695C221.899 72.2718 223.719 77.4007 227.309 81.1865C237.074 91.482 232.049 108.486 218.257 111.82C213.185 113.046 208.869 116.362 206.378 120.947C199.604 133.415 181.879 133.89 174.447 121.803C171.713 117.359 167.226 114.279 162.096 113.327C148.145 110.737 142.216 94.0265 151.414 83.2224C154.797 79.2495 156.339 74.0304 155.659 68.8571C153.811 54.7885 167.871 43.9855 180.989 49.3951C185.813 51.3843 191.253 51.2384 195.963 48.9934Z" fill="#1F2269"/>
<path d="M194.022 53.6173C205.164 48.3067 217.88 57.0347 216.931 69.341C216.582 73.8662 218.165 78.3276 221.289 81.6207C229.782 90.5763 225.411 105.368 213.414 108.268C209.002 109.334 205.248 112.218 203.082 116.206C197.189 127.052 181.771 127.465 175.305 116.951C172.928 113.085 169.025 110.406 164.562 109.578C152.427 107.325 147.269 92.7896 155.271 83.3916C158.213 79.9358 159.554 75.3959 158.963 70.8959C157.356 58.6582 169.586 49.2611 180.997 53.9667C185.193 55.6971 189.925 55.5701 194.022 53.6173Z" fill="#373DC9"/>
<path d="M336.485 139.995C344.448 145.511 340.699 157.995 331.015 158.212L327.577 158.289C323.245 158.387 319.469 161.262 318.223 165.411L317.234 168.705C314.449 177.983 301.418 178.275 298.218 169.132L297.082 165.886C295.651 161.797 291.75 159.094 287.419 159.191L283.981 159.268C274.296 159.486 269.991 147.183 277.698 141.315L280.434 139.231C283.881 136.607 285.246 132.061 283.815 127.972L282.679 124.726C279.48 115.583 289.85 107.687 297.813 113.203L300.64 115.162C304.201 117.629 308.946 117.522 312.392 114.898L315.129 112.814C322.836 106.946 333.55 114.368 330.764 123.646L329.775 126.94C328.529 131.089 330.097 135.569 333.658 138.036L336.485 139.995Z" fill="#9536C1"/>
<path d="M96.4849 140.156C104.448 145.672 100.699 158.156 91.0147 158.373L87.5765 158.45C83.2453 158.548 79.4694 161.423 78.2235 165.572L77.2345 168.866C74.4485 178.144 61.4177 178.436 58.2181 169.293L57.0822 166.047C55.6513 161.958 51.7501 159.255 47.4189 159.352L43.9807 159.429C34.296 159.647 29.9909 147.344 37.6982 141.476L40.4344 139.392C43.8812 136.768 45.2461 132.222 43.8152 128.133L42.6793 124.887C39.4797 115.744 49.8498 107.848 57.8128 113.364L60.6397 115.323C64.2009 117.79 68.9457 117.683 72.3925 115.059L75.1286 112.975C82.8359 107.107 93.5501 114.529 90.7642 123.807L89.7752 127.101C88.5293 131.25 90.0968 135.73 93.658 138.197L96.4849 140.156Z" fill="#9536C1"/>
<defs>
<linearGradient id="paint0_linear" x1="298.5" y1="188" x2="219.394" y2="142.528" gradientUnits="userSpaceOnUse">
<stop offset="0.622407" stop-color="#9536C1"/>
<stop offset="0.623258" stop-color="#9536C1"/>
<stop offset="1" stop-color="white" stop-opacity="0"/>
</linearGradient>
<linearGradient id="paint1_linear" x1="57" y1="82.5" x2="85.5" y2="50" gradientUnits="userSpaceOnUse">
<stop offset="0.651042" stop-color="#9536C1"/>
<stop offset="1" stop-color="white" stop-opacity="0"/>
</linearGradient>
<linearGradient id="paint2_linear" x1="242.749" y1="15.9791" x2="232.581" y2="38.5902" gradientUnits="userSpaceOnUse">
<stop offset="0.00520833" stop-color="white" stop-opacity="0"/>
<stop offset="1" stop-color="#4A51F5"/>
</linearGradient>
</defs>
</svg>
