<svg width="237" height="82" viewBox="0 0 237 82" fill="none" xmlns="http://www.w3.org/2000/svg">
<g filter="url(#filter0_d)">
<path d="M4 5C4 2.23858 6.23858 0 9 0H228C230.761 0 233 2.23858 233 5V69C233 71.7614 230.761 74 228 74H9C6.23858 74 4 71.7614 4 69V37V5Z" fill="white"/>
<path d="M4 3C4 1.34315 5.34315 0 7 0H230C231.657 0 233 1.34315 233 3C233 4.65685 231.657 6 230 6H7C5.34315 6 4 4.65685 4 3Z" fill="#29E9E9"/>
<path d="M30.5879 24.061L32.3604 18.1797H34.1543L31.4312 26H29.75L27.0376 18.1797H28.8262L30.5879 24.061ZM37.9141 26C37.8424 25.8604 37.7905 25.6867 37.7583 25.479C37.3823 25.8979 36.8936 26.1074 36.292 26.1074C35.7227 26.1074 35.25 25.9427 34.874 25.6133C34.5016 25.2839 34.3154 24.8685 34.3154 24.3672C34.3154 23.7513 34.5428 23.2786 34.9976 22.9492C35.4559 22.6198 36.1165 22.4533 36.9795 22.4497H37.6938V22.1167C37.6938 21.8481 37.624 21.6333 37.4844 21.4722C37.3483 21.311 37.1317 21.2305 36.8345 21.2305C36.5731 21.2305 36.3672 21.2931 36.2168 21.4185C36.07 21.5438 35.9966 21.7157 35.9966 21.9341H34.4443C34.4443 21.5975 34.5482 21.286 34.7559 20.9995C34.9635 20.7131 35.2572 20.4893 35.6367 20.3281C36.0163 20.1634 36.4424 20.0811 36.915 20.0811C37.6312 20.0811 38.1987 20.2619 38.6177 20.6235C39.0402 20.9816 39.2515 21.4865 39.2515 22.1382V24.6572C39.255 25.2087 39.332 25.6258 39.4824 25.9087V26H37.9141ZM36.6304 24.9204C36.8595 24.9204 37.0708 24.8703 37.2642 24.77C37.4575 24.6662 37.6007 24.5283 37.6938 24.3564V23.3574H37.1138C36.3368 23.3574 35.9232 23.626 35.873 24.1631L35.8677 24.2544C35.8677 24.4478 35.9357 24.6071 36.0718 24.7324C36.2078 24.8577 36.394 24.9204 36.6304 24.9204ZM42.8608 24.856C43.1473 24.856 43.38 24.7772 43.5591 24.6196C43.7381 24.4621 43.8312 24.2526 43.8384 23.9912H45.2939C45.2904 24.3851 45.1829 24.7467 44.9717 25.0762C44.7604 25.402 44.4704 25.6562 44.1016 25.8389C43.7363 26.0179 43.3317 26.1074 42.8877 26.1074C42.057 26.1074 41.4017 25.8442 40.9219 25.3179C40.4421 24.7879 40.2021 24.0575 40.2021 23.1265V23.0244C40.2021 22.1292 40.4403 21.4149 40.9165 20.8813C41.3927 20.3478 42.0462 20.0811 42.877 20.0811C43.6038 20.0811 44.1857 20.2887 44.6226 20.7041C45.063 21.1159 45.2868 21.6655 45.2939 22.353H43.8384C43.8312 22.0522 43.7381 21.8088 43.5591 21.6226C43.38 21.4328 43.1437 21.3379 42.8501 21.3379C42.4884 21.3379 42.2145 21.4704 42.0283 21.7354C41.8457 21.9967 41.7544 22.4229 41.7544 23.0137V23.1748C41.7544 23.7728 41.8457 24.2025 42.0283 24.4639C42.2109 24.7253 42.4884 24.856 42.8608 24.856ZM49.5479 26C49.4762 25.8604 49.4243 25.6867 49.3921 25.479C49.0161 25.8979 48.5273 26.1074 47.9258 26.1074C47.3564 26.1074 46.8838 25.9427 46.5078 25.6133C46.1354 25.2839 45.9492 24.8685 45.9492 24.3672C45.9492 23.7513 46.1766 23.2786 46.6313 22.9492C47.0897 22.6198 47.7503 22.4533 48.6133 22.4497H49.3276V22.1167C49.3276 21.8481 49.2578 21.6333 49.1182 21.4722C48.9821 21.311 48.7655 21.2305 48.4683 21.2305C48.2069 21.2305 48.001 21.2931 47.8506 21.4185C47.7038 21.5438 47.6304 21.7157 47.6304 21.9341H46.0781C46.0781 21.5975 46.182 21.286 46.3896 20.9995C46.5973 20.7131 46.891 20.4893 47.2705 20.3281C47.6501 20.1634 48.0762 20.0811 48.5488 20.0811C49.265 20.0811 49.8325 20.2619 50.2515 20.6235C50.674 20.9816 50.8853 21.4865 50.8853 22.1382V24.6572C50.8888 25.2087 50.9658 25.6258 51.1162 25.9087V26H49.5479ZM48.2642 24.9204C48.4933 24.9204 48.7046 24.8703 48.8979 24.77C49.0913 24.6662 49.2345 24.5283 49.3276 24.3564V23.3574H48.7476C47.9705 23.3574 47.557 23.626 47.5068 24.1631L47.5015 24.2544C47.5015 24.4478 47.5695 24.6071 47.7056 24.7324C47.8416 24.8577 48.0278 24.9204 48.2642 24.9204ZM53.936 18.7598V20.1885H54.9297V21.3271H53.936V24.2275C53.936 24.4424 53.9772 24.5964 54.0596 24.6895C54.1419 24.7826 54.2995 24.8291 54.5322 24.8291C54.7041 24.8291 54.8563 24.8166 54.9888 24.7915V25.9678C54.6844 26.0609 54.3711 26.1074 54.0488 26.1074C52.9603 26.1074 52.4053 25.5578 52.3838 24.4585V21.3271H51.5352V20.1885H52.3838V18.7598H53.936ZM57.4326 26H55.875V20.1885H57.4326V26ZM55.7837 18.6846C55.7837 18.4518 55.8607 18.2603 56.0146 18.1099C56.1722 17.9595 56.3853 17.8843 56.6538 17.8843C56.9188 17.8843 57.13 17.9595 57.2876 18.1099C57.4451 18.2603 57.5239 18.4518 57.5239 18.6846C57.5239 18.9209 57.4434 19.1143 57.2822 19.2646C57.1247 19.415 56.9152 19.4902 56.6538 19.4902C56.3924 19.4902 56.1812 19.415 56.02 19.2646C55.8625 19.1143 55.7837 18.9209 55.7837 18.6846ZM58.4746 23.0405C58.4746 22.464 58.5856 21.9502 58.8076 21.499C59.0296 21.0479 59.3483 20.6987 59.7637 20.4517C60.1826 20.2046 60.6678 20.0811 61.2192 20.0811C62.0034 20.0811 62.6426 20.321 63.1367 20.8008C63.6344 21.2806 63.9119 21.9323 63.9692 22.7559L63.98 23.1533C63.98 24.0449 63.7311 24.7611 63.2334 25.3018C62.7357 25.8389 62.0679 26.1074 61.23 26.1074C60.3921 26.1074 59.7225 25.8389 59.2212 25.3018C58.7235 24.7646 58.4746 24.0342 58.4746 23.1104V23.0405ZM60.0269 23.1533C60.0269 23.7048 60.1307 24.1273 60.3384 24.4209C60.5461 24.7109 60.8433 24.856 61.23 24.856C61.606 24.856 61.8996 24.7127 62.1108 24.4263C62.3221 24.1362 62.4277 23.6743 62.4277 23.0405C62.4277 22.4998 62.3221 22.0809 62.1108 21.7837C61.8996 21.4865 61.6024 21.3379 61.2192 21.3379C60.8397 21.3379 60.5461 21.4865 60.3384 21.7837C60.1307 22.0773 60.0269 22.5339 60.0269 23.1533ZM66.3647 20.1885L66.4131 20.8599C66.8285 20.3407 67.3853 20.0811 68.0835 20.0811C68.6994 20.0811 69.1577 20.2619 69.4585 20.6235C69.7593 20.9852 69.9132 21.5259 69.9204 22.2456V26H68.3682V22.2832C68.3682 21.9538 68.2965 21.7157 68.1533 21.5688C68.0101 21.4185 67.772 21.3433 67.439 21.3433C67.0021 21.3433 66.6745 21.5295 66.4561 21.9019V26H64.9038V20.1885H66.3647ZM79.1372 26H73.7769V24.9365L76.3066 22.2402C76.654 21.8607 76.91 21.5295 77.0747 21.2466C77.243 20.9637 77.3271 20.6951 77.3271 20.4409C77.3271 20.0936 77.2394 19.8215 77.064 19.6245C76.8885 19.424 76.6379 19.3237 76.312 19.3237C75.9611 19.3237 75.6836 19.4455 75.4795 19.689C75.279 19.9289 75.1787 20.2458 75.1787 20.6396H73.6211C73.6211 20.1634 73.7339 19.7284 73.9595 19.3345C74.1886 18.9406 74.5109 18.6326 74.9263 18.4106C75.3416 18.1851 75.8125 18.0723 76.3389 18.0723C77.1445 18.0723 77.7694 18.2656 78.2134 18.6523C78.661 19.0391 78.8848 19.5851 78.8848 20.2905C78.8848 20.6772 78.7845 21.0711 78.584 21.4722C78.3835 21.8732 78.0397 22.3405 77.5527 22.874L75.7749 24.7485H79.1372V26ZM85.3569 22.7666C85.3569 23.848 85.1331 24.6751 84.6855 25.248C84.238 25.821 83.5827 26.1074 82.7197 26.1074C81.8675 26.1074 81.2158 25.8263 80.7646 25.2642C80.3135 24.702 80.0825 23.8963 80.0718 22.8472V21.4077C80.0718 20.3156 80.2974 19.4867 80.7485 18.9209C81.2033 18.3551 81.8568 18.0723 82.709 18.0723C83.5612 18.0723 84.2129 18.3534 84.6641 18.9155C85.1152 19.4741 85.3462 20.278 85.3569 21.3271V22.7666ZM83.8047 21.1875C83.8047 20.5394 83.7152 20.0685 83.5361 19.7749C83.3607 19.4777 83.085 19.3291 82.709 19.3291C82.3438 19.3291 82.0734 19.4705 81.8979 19.7534C81.7261 20.0327 81.6348 20.4714 81.624 21.0693V22.9707C81.624 23.6081 81.71 24.0825 81.8818 24.394C82.0573 24.702 82.3366 24.856 82.7197 24.856C83.0993 24.856 83.3732 24.7074 83.5415 24.4102C83.7098 24.113 83.7975 23.6582 83.8047 23.0459V21.1875ZM90.1802 26H88.6279V20.0166L86.7749 20.5913V19.3291L90.0137 18.1689H90.1802V26ZM97.8232 20.2583C97.8232 20.6379 97.7284 20.9744 97.5386 21.2681C97.3488 21.5617 97.0874 21.7962 96.7544 21.9717C97.134 22.1543 97.4347 22.4067 97.6567 22.729C97.8787 23.0477 97.9897 23.4237 97.9897 23.8569C97.9897 24.5516 97.7534 25.1012 97.2808 25.5059C96.8081 25.9069 96.1654 26.1074 95.3525 26.1074C94.5397 26.1074 93.8952 25.9051 93.4189 25.5005C92.9427 25.0959 92.7046 24.548 92.7046 23.8569C92.7046 23.4237 92.8156 23.0459 93.0376 22.7236C93.2596 22.4014 93.5586 22.1507 93.9346 21.9717C93.6016 21.7962 93.3402 21.5617 93.1504 21.2681C92.9642 20.9744 92.8711 20.6379 92.8711 20.2583C92.8711 19.5923 93.0931 19.0623 93.5371 18.6685C93.9811 18.271 94.5845 18.0723 95.3472 18.0723C96.1063 18.0723 96.7078 18.2692 97.1519 18.6631C97.5994 19.0534 97.8232 19.5851 97.8232 20.2583ZM96.4321 23.7441C96.4321 23.404 96.3337 23.1318 96.1367 22.9277C95.9398 22.7236 95.6748 22.6216 95.3418 22.6216C95.0124 22.6216 94.7492 22.7236 94.5522 22.9277C94.3553 23.1283 94.2568 23.4004 94.2568 23.7441C94.2568 24.0771 94.3535 24.3457 94.5469 24.5498C94.7402 24.7539 95.0088 24.856 95.3525 24.856C95.6891 24.856 95.9523 24.7575 96.1421 24.5605C96.3354 24.3636 96.4321 24.0915 96.4321 23.7441ZM96.271 20.3335C96.271 20.0291 96.1904 19.7856 96.0293 19.603C95.8682 19.4168 95.6408 19.3237 95.3472 19.3237C95.0571 19.3237 94.8315 19.4132 94.6704 19.5923C94.5093 19.7713 94.4287 20.0184 94.4287 20.3335C94.4287 20.645 94.5093 20.8957 94.6704 21.0854C94.8315 21.2752 95.0589 21.3701 95.3525 21.3701C95.6462 21.3701 95.8717 21.2752 96.0293 21.0854C96.1904 20.8957 96.271 20.645 96.271 20.3335ZM27.6504 37V30.6016H29.54C30.1055 30.6016 30.6064 30.7275 31.043 30.9795C31.4824 31.2314 31.8223 31.5889 32.0625 32.0518C32.3027 32.5146 32.4229 33.0449 32.4229 33.6426V33.9634C32.4229 34.5698 32.3013 35.103 32.0581 35.563C31.8179 36.0229 31.4736 36.3774 31.0254 36.6265C30.5801 36.8755 30.0688 37 29.4917 37H27.6504ZM28.7622 31.498V36.1123H29.4873C30.0703 36.1123 30.5171 35.9307 30.8276 35.5674C31.1411 35.2012 31.3008 34.6768 31.3066 33.9941V33.6382C31.3066 32.9438 31.1558 32.4136 30.854 32.0474C30.5522 31.6812 30.1143 31.498 29.54 31.498H28.7622ZM36.2681 37C36.2212 36.9092 36.1802 36.7612 36.145 36.5562C35.8052 36.9106 35.3892 37.0879 34.897 37.0879C34.4194 37.0879 34.0298 36.9517 33.728 36.6792C33.4263 36.4067 33.2754 36.0698 33.2754 35.6685C33.2754 35.1616 33.4629 34.7734 33.8379 34.5039C34.2158 34.2314 34.7549 34.0952 35.4551 34.0952H36.1099V33.7832C36.1099 33.5371 36.041 33.3408 35.9033 33.1943C35.7656 33.0449 35.5562 32.9702 35.2749 32.9702C35.0317 32.9702 34.8325 33.0317 34.6772 33.1548C34.522 33.2749 34.4443 33.4287 34.4443 33.6162H33.3765C33.3765 33.3555 33.4629 33.1123 33.6357 32.8867C33.8086 32.6582 34.043 32.4795 34.3389 32.3506C34.6377 32.2217 34.9702 32.1572 35.3364 32.1572C35.8931 32.1572 36.3369 32.2979 36.668 32.5791C36.999 32.8574 37.1689 33.25 37.1777 33.7568V35.9014C37.1777 36.3291 37.2378 36.6704 37.3579 36.9253V37H36.2681ZM35.0947 36.231C35.3057 36.231 35.5034 36.1797 35.688 36.0771C35.8755 35.9746 36.0161 35.8369 36.1099 35.6641V34.7676H35.5342C35.1387 34.7676 34.8413 34.8364 34.6421 34.9741C34.4429 35.1118 34.3433 35.3066 34.3433 35.5586C34.3433 35.7637 34.4106 35.9277 34.5454 36.0508C34.6831 36.1709 34.8662 36.231 35.0947 36.231ZM39.6343 31.0894V32.2451H40.4736V33.0361H39.6343V35.6904C39.6343 35.8721 39.6694 36.0039 39.7397 36.0859C39.813 36.165 39.9419 36.2046 40.1265 36.2046C40.2495 36.2046 40.374 36.1899 40.5 36.1606V36.9868C40.2568 37.0542 40.0225 37.0879 39.7969 37.0879C38.9766 37.0879 38.5664 36.6353 38.5664 35.73V33.0361H37.7842V32.2451H38.5664V31.0894H39.6343ZM43.3872 37.0879C42.7104 37.0879 42.1611 36.8755 41.7393 36.4507C41.3203 36.0229 41.1108 35.4546 41.1108 34.7456V34.6138C41.1108 34.1392 41.2017 33.7158 41.3833 33.3438C41.5679 32.9688 41.8257 32.6772 42.1567 32.4692C42.4878 32.2612 42.8569 32.1572 43.2642 32.1572C43.9116 32.1572 44.4111 32.3638 44.7627 32.7769C45.1172 33.1899 45.2944 33.7744 45.2944 34.5303V34.9609H42.1875C42.2197 35.3535 42.3501 35.6641 42.5786 35.8926C42.8101 36.1211 43.1001 36.2354 43.4487 36.2354C43.938 36.2354 44.3364 36.0376 44.644 35.6421L45.2197 36.1914C45.0293 36.4756 44.7744 36.6968 44.4551 36.855C44.1387 37.0103 43.7827 37.0879 43.3872 37.0879ZM43.2598 33.0142C42.9668 33.0142 42.7295 33.1167 42.5479 33.3218C42.3691 33.5269 42.2549 33.8125 42.2051 34.1787H44.2397V34.0996C44.2163 33.7422 44.1211 33.4727 43.9541 33.291C43.7871 33.1064 43.5557 33.0142 43.2598 33.0142ZM48.7925 35.708C48.7925 35.5176 48.7134 35.3726 48.5552 35.2729C48.3999 35.1733 48.1406 35.0854 47.7773 35.0093C47.4141 34.9331 47.1108 34.8364 46.8677 34.7192C46.3345 34.4614 46.0679 34.0879 46.0679 33.5986C46.0679 33.1885 46.2407 32.8457 46.5864 32.5703C46.9321 32.2949 47.3716 32.1572 47.9048 32.1572C48.4731 32.1572 48.9316 32.2979 49.2803 32.5791C49.6318 32.8604 49.8076 33.2251 49.8076 33.6733H48.7397C48.7397 33.4683 48.6636 33.2983 48.5112 33.1636C48.3589 33.0259 48.1567 32.957 47.9048 32.957C47.6704 32.957 47.4785 33.0112 47.3291 33.1196C47.1826 33.228 47.1094 33.373 47.1094 33.5547C47.1094 33.7188 47.1782 33.8462 47.3159 33.937C47.4536 34.0278 47.7319 34.1201 48.1509 34.2139C48.5698 34.3047 48.8979 34.4146 49.1353 34.5435C49.3755 34.6694 49.5527 34.8218 49.667 35.0005C49.7842 35.1792 49.8428 35.396 49.8428 35.6509C49.8428 36.0786 49.6655 36.4258 49.311 36.6924C48.9565 36.9561 48.4922 37.0879 47.918 37.0879C47.5283 37.0879 47.1812 37.0176 46.8765 36.877C46.5718 36.7363 46.3345 36.543 46.1646 36.2969C45.9946 36.0508 45.9097 35.7856 45.9097 35.5015H46.9468C46.9614 35.7534 47.0566 35.9482 47.2324 36.0859C47.4082 36.2207 47.6411 36.2881 47.9312 36.2881C48.2124 36.2881 48.4263 36.2354 48.5728 36.1299C48.7192 36.0215 48.7925 35.8809 48.7925 35.708ZM51.4204 35.875C51.6196 35.875 51.7734 35.9321 51.8818 36.0464C51.9902 36.1577 52.0444 36.2983 52.0444 36.4683C52.0444 36.6353 51.9902 36.7744 51.8818 36.8857C51.7734 36.9941 51.6196 37.0483 51.4204 37.0483C51.23 37.0483 51.0791 36.9941 50.9678 36.8857C50.8564 36.7773 50.8008 36.6382 50.8008 36.4683C50.8008 36.2983 50.855 36.1577 50.9634 36.0464C51.0718 35.9321 51.2241 35.875 51.4204 35.875ZM51.4204 32.144C51.6196 32.144 51.7734 32.2012 51.8818 32.3154C51.9902 32.4268 52.0444 32.5674 52.0444 32.7373C52.0444 32.9043 51.9902 33.0435 51.8818 33.1548C51.7734 33.2632 51.6196 33.3174 51.4204 33.3174C51.23 33.3174 51.0791 33.2632 50.9678 33.1548C50.8564 33.0464 50.8008 32.9072 50.8008 32.7373C50.8008 32.5674 50.855 32.4268 50.9634 32.3154C51.0718 32.2012 51.2241 32.144 51.4204 32.144ZM58.0562 37H57.2388V31.5815L55.5996 32.1836V31.4453L57.9287 30.5708H58.0562V37ZM61.6201 33.4053H62.231C62.6147 33.3994 62.9165 33.2983 63.1362 33.1021C63.356 32.9058 63.4658 32.6406 63.4658 32.3066C63.4658 31.5566 63.0923 31.1816 62.3452 31.1816C61.9937 31.1816 61.7124 31.2827 61.5015 31.4849C61.2935 31.6841 61.1895 31.9492 61.1895 32.2803H60.3765C60.3765 31.7734 60.561 31.353 60.9302 31.019C61.3022 30.6821 61.7739 30.5137 62.3452 30.5137C62.9487 30.5137 63.4219 30.6733 63.7646 30.9927C64.1074 31.312 64.2788 31.7559 64.2788 32.3242C64.2788 32.6025 64.188 32.8721 64.0063 33.1328C63.8276 33.3936 63.583 33.5884 63.2725 33.7173C63.624 33.8286 63.895 34.0132 64.0854 34.271C64.2788 34.5288 64.3755 34.8438 64.3755 35.2158C64.3755 35.79 64.188 36.2456 63.813 36.5825C63.438 36.9194 62.9502 37.0879 62.3496 37.0879C61.749 37.0879 61.2598 36.9253 60.8818 36.6001C60.5068 36.2749 60.3193 35.8457 60.3193 35.3125H61.1367C61.1367 35.6494 61.2466 35.9189 61.4663 36.1211C61.686 36.3232 61.9805 36.4243 62.3496 36.4243C62.7422 36.4243 63.0425 36.3218 63.2505 36.1167C63.4585 35.9116 63.5625 35.6172 63.5625 35.2334C63.5625 34.8613 63.4482 34.5757 63.2197 34.3765C62.9912 34.1772 62.6616 34.0747 62.231 34.0688H61.6201V33.4053ZM67.2671 34.6138H65.1226V33.9502H67.2671V34.6138ZM74.4038 37H70.2114V36.4155L72.4263 33.9546C72.7544 33.5825 72.98 33.2808 73.103 33.0493C73.229 32.8149 73.292 32.5732 73.292 32.3242C73.292 31.9902 73.1909 31.7163 72.9888 31.5024C72.7866 31.2886 72.5171 31.1816 72.1802 31.1816C71.7759 31.1816 71.4609 31.2974 71.2354 31.5288C71.0127 31.7573 70.9014 32.0767 70.9014 32.4868H70.0884C70.0884 31.8979 70.2773 31.4219 70.6553 31.0586C71.0361 30.6953 71.5444 30.5137 72.1802 30.5137C72.7749 30.5137 73.2451 30.6704 73.5908 30.9839C73.9365 31.2944 74.1094 31.709 74.1094 32.2275C74.1094 32.8574 73.708 33.6074 72.9053 34.4775L71.1914 36.3364H74.4038V37ZM79.2773 34.271C79.2773 35.2231 79.1147 35.9307 78.7896 36.3936C78.4644 36.8564 77.9561 37.0879 77.2646 37.0879C76.582 37.0879 76.0767 36.8623 75.7485 36.4111C75.4204 35.957 75.2505 35.2803 75.2388 34.3809V33.2954C75.2388 32.355 75.4014 31.6562 75.7266 31.1992C76.0518 30.7422 76.5615 30.5137 77.2559 30.5137C77.9443 30.5137 78.4512 30.7349 78.7764 31.1772C79.1016 31.6167 79.2686 32.2964 79.2773 33.2163V34.271ZM78.4644 33.1592C78.4644 32.4707 78.3677 31.9697 78.1743 31.6562C77.981 31.3398 77.6748 31.1816 77.2559 31.1816C76.8398 31.1816 76.5366 31.3384 76.3462 31.6519C76.1558 31.9653 76.0576 32.4473 76.0518 33.0977V34.3984C76.0518 35.0898 76.1514 35.6011 76.3506 35.9321C76.5527 36.2603 76.8574 36.4243 77.2646 36.4243C77.666 36.4243 77.9634 36.269 78.1567 35.9585C78.353 35.6479 78.4556 35.1587 78.4644 34.4907V33.1592ZM86.291 34.1743H83.606V37H82.7622V30.6016H86.7261V31.2959H83.606V33.4844H86.291V34.1743ZM89.4858 37.0879C88.8413 37.0879 88.3169 36.877 87.9126 36.4551C87.5083 36.0303 87.3062 35.4634 87.3062 34.7544V34.605C87.3062 34.1333 87.3955 33.7129 87.5742 33.3438C87.7559 32.9717 88.0078 32.6816 88.3301 32.4736C88.6553 32.2627 89.0068 32.1572 89.3848 32.1572C90.0029 32.1572 90.4834 32.3608 90.8262 32.7681C91.1689 33.1753 91.3403 33.7583 91.3403 34.5171V34.8555H88.1191C88.1309 35.3242 88.2671 35.7036 88.5278 35.9937C88.7915 36.2808 89.1255 36.4243 89.5298 36.4243C89.8169 36.4243 90.0601 36.3657 90.2593 36.2485C90.4585 36.1313 90.6328 35.9761 90.7822 35.7827L91.2788 36.1694C90.8804 36.7817 90.2827 37.0879 89.4858 37.0879ZM89.3848 32.8252C89.0566 32.8252 88.7812 32.9453 88.5586 33.1855C88.3359 33.4229 88.1982 33.7568 88.1455 34.1875H90.5273V34.126C90.5039 33.7129 90.3926 33.3936 90.1934 33.168C89.9941 32.9395 89.7246 32.8252 89.3848 32.8252ZM96.3105 34.6753C96.3105 35.4019 96.1436 35.9863 95.8096 36.4287C95.4756 36.8682 95.0273 37.0879 94.4648 37.0879C93.8643 37.0879 93.3999 36.8755 93.0718 36.4507L93.0322 37H92.2852V30.25H93.0981V32.7681C93.4263 32.3608 93.8789 32.1572 94.4561 32.1572C95.0332 32.1572 95.4858 32.3755 95.814 32.812C96.145 33.2485 96.3105 33.8462 96.3105 34.605V34.6753ZM95.4976 34.583C95.4976 34.0293 95.3906 33.6016 95.1768 33.2998C94.9629 32.998 94.6553 32.8472 94.2539 32.8472C93.7178 32.8472 93.3325 33.0962 93.0981 33.5942V35.6509C93.3472 36.1489 93.7354 36.3979 94.2627 36.3979C94.6523 36.3979 94.9556 36.2471 95.1724 35.9453C95.3892 35.6436 95.4976 35.1895 95.4976 34.583ZM32.7305 48H31.623V45.1567H28.7622V48H27.6504V41.6016H28.7622V44.2646H31.623V41.6016H32.7305V48ZM33.7456 45.5786C33.7456 45.1128 33.8379 44.6938 34.0225 44.3218C34.207 43.9468 34.4663 43.6597 34.8003 43.4604C35.1343 43.2583 35.5181 43.1572 35.9517 43.1572C36.5933 43.1572 37.1133 43.3638 37.5117 43.7769C37.9131 44.1899 38.1299 44.7378 38.1621 45.4204L38.1665 45.6709C38.1665 46.1396 38.0757 46.5586 37.894 46.9277C37.7153 47.2969 37.4575 47.5825 37.1206 47.7847C36.7866 47.9868 36.3999 48.0879 35.9604 48.0879C35.2896 48.0879 34.752 47.8652 34.3477 47.4199C33.9463 46.9717 33.7456 46.3755 33.7456 45.6313V45.5786ZM34.8135 45.6709C34.8135 46.1602 34.9146 46.5439 35.1167 46.8223C35.3188 47.0977 35.6001 47.2354 35.9604 47.2354C36.3208 47.2354 36.6006 47.0947 36.7998 46.8135C37.002 46.5322 37.103 46.1206 37.103 45.5786C37.103 45.0981 36.999 44.7173 36.791 44.436C36.5859 44.1548 36.3062 44.0142 35.9517 44.0142C35.603 44.0142 35.3262 44.1533 35.1211 44.4316C34.916 44.707 34.8135 45.1201 34.8135 45.6709ZM40.4077 42.0894V43.2451H41.2471V44.0361H40.4077V46.6904C40.4077 46.8721 40.4429 47.0039 40.5132 47.0859C40.5864 47.165 40.7153 47.2046 40.8999 47.2046C41.0229 47.2046 41.1475 47.1899 41.2734 47.1606V47.9868C41.0303 48.0542 40.7959 48.0879 40.5703 48.0879C39.75 48.0879 39.3398 47.6353 39.3398 46.73V44.0361H38.5576V43.2451H39.3398V42.0894H40.4077ZM44.1606 48.0879C43.4839 48.0879 42.9346 47.8755 42.5127 47.4507C42.0938 47.0229 41.8843 46.4546 41.8843 45.7456V45.6138C41.8843 45.1392 41.9751 44.7158 42.1567 44.3438C42.3413 43.9688 42.5991 43.6772 42.9302 43.4692C43.2612 43.2612 43.6304 43.1572 44.0376 43.1572C44.6851 43.1572 45.1846 43.3638 45.5361 43.7769C45.8906 44.1899 46.0679 44.7744 46.0679 45.5303V45.9609H42.9609C42.9932 46.3535 43.1235 46.6641 43.3521 46.8926C43.5835 47.1211 43.8735 47.2354 44.2222 47.2354C44.7114 47.2354 45.1099 47.0376 45.4175 46.6421L45.9932 47.1914C45.8027 47.4756 45.5479 47.6968 45.2285 47.855C44.9121 48.0103 44.5562 48.0879 44.1606 48.0879ZM44.0332 44.0142C43.7402 44.0142 43.5029 44.1167 43.3213 44.3218C43.1426 44.5269 43.0283 44.8125 42.9785 45.1787H45.0132V45.0996C44.9897 44.7422 44.8945 44.4727 44.7275 44.291C44.5605 44.1064 44.3291 44.0142 44.0332 44.0142ZM48.0366 48H46.9688V41.25H48.0366V48ZM49.8472 46.875C50.0464 46.875 50.2002 46.9321 50.3086 47.0464C50.417 47.1577 50.4712 47.2983 50.4712 47.4683C50.4712 47.6353 50.417 47.7744 50.3086 47.8857C50.2002 47.9941 50.0464 48.0483 49.8472 48.0483C49.6567 48.0483 49.5059 47.9941 49.3945 47.8857C49.2832 47.7773 49.2275 47.6382 49.2275 47.4683C49.2275 47.2983 49.2817 47.1577 49.3901 47.0464C49.4985 46.9321 49.6509 46.875 49.8472 46.875ZM49.8472 43.144C50.0464 43.144 50.2002 43.2012 50.3086 43.3154C50.417 43.4268 50.4712 43.5674 50.4712 43.7373C50.4712 43.9043 50.417 44.0435 50.3086 44.1548C50.2002 44.2632 50.0464 44.3174 49.8472 44.3174C49.6567 44.3174 49.5059 44.2632 49.3945 44.1548C49.2832 44.0464 49.2275 43.9072 49.2275 43.7373C49.2275 43.5674 49.2817 43.4268 49.3901 43.3154C49.4985 43.2012 49.6509 43.144 49.8472 43.144ZM57.9287 45.6753C57.9287 46.4019 57.7617 46.9863 57.4277 47.4287C57.0938 47.8682 56.6455 48.0879 56.083 48.0879C55.4824 48.0879 55.0181 47.8755 54.6899 47.4507L54.6504 48H53.9033V41.25H54.7163V43.7681C55.0444 43.3608 55.4971 43.1572 56.0742 43.1572C56.6514 43.1572 57.104 43.3755 57.4321 43.812C57.7632 44.2485 57.9287 44.8462 57.9287 45.605V45.6753ZM57.1157 45.583C57.1157 45.0293 57.0088 44.6016 56.7949 44.2998C56.5811 43.998 56.2734 43.8472 55.8721 43.8472C55.3359 43.8472 54.9507 44.0962 54.7163 44.5942V46.6509C54.9653 47.1489 55.3535 47.3979 55.8809 47.3979C56.2705 47.3979 56.5737 47.2471 56.7905 46.9453C57.0073 46.6436 57.1157 46.1895 57.1157 45.583ZM58.7417 45.5786C58.7417 45.1128 58.8325 44.6938 59.0142 44.3218C59.1987 43.9497 59.4536 43.6626 59.7788 43.4604C60.1069 43.2583 60.4805 43.1572 60.8994 43.1572C61.5469 43.1572 62.0698 43.3813 62.4683 43.8296C62.8696 44.2778 63.0703 44.874 63.0703 45.6182V45.6753C63.0703 46.1382 62.981 46.5542 62.8022 46.9233C62.6265 47.2896 62.373 47.5752 62.042 47.7803C61.7139 47.9854 61.3359 48.0879 60.9082 48.0879C60.2637 48.0879 59.7407 47.8638 59.3394 47.4155C58.9409 46.9673 58.7417 46.374 58.7417 45.6357V45.5786ZM59.5591 45.6753C59.5591 46.2026 59.6807 46.626 59.9238 46.9453C60.1699 47.2646 60.498 47.4243 60.9082 47.4243C61.3213 47.4243 61.6494 47.2632 61.8926 46.9409C62.1357 46.6157 62.2573 46.1616 62.2573 45.5786C62.2573 45.0571 62.1328 44.6353 61.8838 44.313C61.6377 43.9878 61.3096 43.8252 60.8994 43.8252C60.498 43.8252 60.1743 43.9849 59.9282 44.3042C59.6821 44.6235 59.5591 45.0806 59.5591 45.6753ZM63.8745 45.5786C63.8745 45.1128 63.9653 44.6938 64.147 44.3218C64.3315 43.9497 64.5864 43.6626 64.9116 43.4604C65.2397 43.2583 65.6133 43.1572 66.0322 43.1572C66.6797 43.1572 67.2026 43.3813 67.6011 43.8296C68.0024 44.2778 68.2031 44.874 68.2031 45.6182V45.6753C68.2031 46.1382 68.1138 46.5542 67.9351 46.9233C67.7593 47.2896 67.5059 47.5752 67.1748 47.7803C66.8467 47.9854 66.4688 48.0879 66.041 48.0879C65.3965 48.0879 64.8735 47.8638 64.4722 47.4155C64.0737 46.9673 63.8745 46.374 63.8745 45.6357V45.5786ZM64.6919 45.6753C64.6919 46.2026 64.8135 46.626 65.0566 46.9453C65.3027 47.2646 65.6309 47.4243 66.041 47.4243C66.4541 47.4243 66.7822 47.2632 67.0254 46.9409C67.2686 46.6157 67.3901 46.1616 67.3901 45.5786C67.3901 45.0571 67.2656 44.6353 67.0166 44.313C66.7705 43.9878 66.4424 43.8252 66.0322 43.8252C65.6309 43.8252 65.3071 43.9849 65.061 44.3042C64.8149 44.6235 64.6919 45.0806 64.6919 45.6753ZM70.5498 45.7983L70.04 46.3301V48H69.2271V41.25H70.04V45.3325L70.4751 44.8096L71.9561 43.2451H72.9448L71.0947 45.2314L73.1602 48H72.2065L70.5498 45.7983ZM74.6675 48H73.8545V43.2451H74.6675V48ZM73.7886 41.9839C73.7886 41.8521 73.8281 41.7407 73.9072 41.6499C73.9893 41.5591 74.1094 41.5137 74.2676 41.5137C74.4258 41.5137 74.5459 41.5591 74.6279 41.6499C74.71 41.7407 74.751 41.8521 74.751 41.9839C74.751 42.1157 74.71 42.2256 74.6279 42.3135C74.5459 42.4014 74.4258 42.4453 74.2676 42.4453C74.1094 42.4453 73.9893 42.4014 73.9072 42.3135C73.8281 42.2256 73.7886 42.1157 73.7886 41.9839ZM76.7417 43.2451L76.7681 43.8428C77.1313 43.3857 77.606 43.1572 78.1919 43.1572C79.1968 43.1572 79.7036 43.7241 79.7124 44.8579V48H78.8994V44.8535C78.8965 44.5107 78.8174 44.2573 78.6621 44.0933C78.5098 43.9292 78.271 43.8472 77.9458 43.8472C77.6821 43.8472 77.4507 43.9175 77.2515 44.0581C77.0522 44.1987 76.897 44.3833 76.7856 44.6118V48H75.9727V43.2451H76.7417ZM80.7451 45.583C80.7451 44.8418 80.9165 44.2529 81.2593 43.8164C81.6021 43.377 82.0562 43.1572 82.6216 43.1572C83.2017 43.1572 83.6543 43.3623 83.9795 43.7725L84.019 43.2451H84.7617V47.8857C84.7617 48.501 84.5786 48.9858 84.2124 49.3403C83.8491 49.6948 83.3599 49.8721 82.7446 49.8721C82.4019 49.8721 82.0664 49.7988 81.7383 49.6523C81.4102 49.5059 81.1597 49.3052 80.9868 49.0503L81.4087 48.5625C81.7573 48.9932 82.1836 49.2085 82.6875 49.2085C83.083 49.2085 83.3906 49.0972 83.6104 48.8745C83.833 48.6519 83.9443 48.3384 83.9443 47.9341V47.5254C83.6191 47.9004 83.1753 48.0879 82.6128 48.0879C82.0562 48.0879 81.605 47.8638 81.2593 47.4155C80.9165 46.9673 80.7451 46.3564 80.7451 45.583ZM81.5625 45.6753C81.5625 46.2114 81.6724 46.6333 81.8921 46.9409C82.1118 47.2456 82.4194 47.3979 82.8149 47.3979C83.3276 47.3979 83.7041 47.165 83.9443 46.6992V44.5283C83.6953 44.0742 83.3218 43.8472 82.8237 43.8472C82.4282 43.8472 82.1191 44.001 81.8965 44.3086C81.6738 44.6162 81.5625 45.0718 81.5625 45.6753ZM86.0098 47.5737C86.0098 47.4331 86.0508 47.3159 86.1328 47.2222C86.2178 47.1284 86.3438 47.0815 86.5107 47.0815C86.6777 47.0815 86.8037 47.1284 86.8887 47.2222C86.9766 47.3159 87.0205 47.4331 87.0205 47.5737C87.0205 47.7085 86.9766 47.8213 86.8887 47.9121C86.8037 48.0029 86.6777 48.0483 86.5107 48.0483C86.3438 48.0483 86.2178 48.0029 86.1328 47.9121C86.0508 47.8213 86.0098 47.7085 86.0098 47.5737ZM90.2725 47.4243C90.5625 47.4243 90.8159 47.3364 91.0327 47.1606C91.2495 46.9849 91.3696 46.7651 91.3931 46.5015H92.1621C92.1475 46.7739 92.0537 47.0332 91.8809 47.2793C91.708 47.5254 91.4766 47.7217 91.1865 47.8682C90.8994 48.0146 90.5947 48.0879 90.2725 48.0879C89.625 48.0879 89.1094 47.8726 88.7256 47.4419C88.3447 47.0083 88.1543 46.4165 88.1543 45.6665V45.5303C88.1543 45.0674 88.2393 44.6558 88.4092 44.2954C88.5791 43.9351 88.8223 43.6553 89.1387 43.4561C89.458 43.2568 89.8345 43.1572 90.2681 43.1572C90.8013 43.1572 91.2437 43.3169 91.5952 43.6362C91.9497 43.9556 92.1387 44.3701 92.1621 44.8799H91.3931C91.3696 44.5723 91.2524 44.3203 91.0415 44.124C90.8335 43.9248 90.5757 43.8252 90.2681 43.8252C89.855 43.8252 89.5342 43.9746 89.3057 44.2734C89.0801 44.5693 88.9673 44.9985 88.9673 45.561V45.7148C88.9673 46.2627 89.0801 46.6846 89.3057 46.9805C89.5312 47.2764 89.8535 47.4243 90.2725 47.4243ZM92.8608 45.5786C92.8608 45.1128 92.9517 44.6938 93.1333 44.3218C93.3179 43.9497 93.5728 43.6626 93.8979 43.4604C94.2261 43.2583 94.5996 43.1572 95.0186 43.1572C95.666 43.1572 96.189 43.3813 96.5874 43.8296C96.9888 44.2778 97.1895 44.874 97.1895 45.6182V45.6753C97.1895 46.1382 97.1001 46.5542 96.9214 46.9233C96.7456 47.2896 96.4922 47.5752 96.1611 47.7803C95.833 47.9854 95.4551 48.0879 95.0273 48.0879C94.3828 48.0879 93.8599 47.8638 93.4585 47.4155C93.0601 46.9673 92.8608 46.374 92.8608 45.6357V45.5786ZM93.6782 45.6753C93.6782 46.2026 93.7998 46.626 94.043 46.9453C94.2891 47.2646 94.6172 47.4243 95.0273 47.4243C95.4404 47.4243 95.7686 47.2632 96.0117 46.9409C96.2549 46.6157 96.3765 46.1616 96.3765 45.5786C96.3765 45.0571 96.252 44.6353 96.0029 44.313C95.7568 43.9878 95.4287 43.8252 95.0186 43.8252C94.6172 43.8252 94.2935 43.9849 94.0474 44.3042C93.8013 44.6235 93.6782 45.0806 93.6782 45.6753ZM98.9736 43.2451L98.9956 43.7725C99.3442 43.3623 99.8145 43.1572 100.406 43.1572C101.071 43.1572 101.524 43.4121 101.764 43.9219C101.922 43.6934 102.127 43.5088 102.379 43.3682C102.634 43.2275 102.935 43.1572 103.28 43.1572C104.323 43.1572 104.854 43.7095 104.871 44.814V48H104.058V44.8623C104.058 44.5225 103.98 44.269 103.825 44.1021C103.67 43.9321 103.409 43.8472 103.043 43.8472C102.741 43.8472 102.491 43.938 102.292 44.1196C102.092 44.2983 101.977 44.54 101.944 44.8447V48H101.127V44.8843C101.127 44.1929 100.789 43.8472 100.112 43.8472C99.5786 43.8472 99.2139 44.0742 99.0176 44.5283V48H98.2046V43.2451H98.9736ZM106.264 48.5493H105.565L108.237 41.6016H108.932L106.264 48.5493ZM110.624 43.8208C110.984 43.3784 111.453 43.1572 112.03 43.1572C113.035 43.1572 113.542 43.7241 113.55 44.8579V48H112.737V44.8535C112.734 44.5107 112.655 44.2573 112.5 44.0933C112.348 43.9292 112.109 43.8472 111.784 43.8472C111.52 43.8472 111.289 43.9175 111.089 44.0581C110.89 44.1987 110.735 44.3833 110.624 44.6118V48H109.811V41.25H110.624V43.8208ZM114.552 45.5786C114.552 45.1128 114.643 44.6938 114.825 44.3218C115.009 43.9497 115.264 43.6626 115.589 43.4604C115.917 43.2583 116.291 43.1572 116.71 43.1572C117.357 43.1572 117.88 43.3813 118.279 43.8296C118.68 44.2778 118.881 44.874 118.881 45.6182V45.6753C118.881 46.1382 118.792 46.5542 118.613 46.9233C118.437 47.2896 118.184 47.5752 117.853 47.7803C117.524 47.9854 117.146 48.0879 116.719 48.0879C116.074 48.0879 115.551 47.8638 115.15 47.4155C114.751 46.9673 114.552 46.374 114.552 45.6357V45.5786ZM115.37 45.6753C115.37 46.2026 115.491 46.626 115.734 46.9453C115.98 47.2646 116.309 47.4243 116.719 47.4243C117.132 47.4243 117.46 47.2632 117.703 46.9409C117.946 46.6157 118.068 46.1616 118.068 45.5786C118.068 45.0571 117.943 44.6353 117.694 44.313C117.448 43.9878 117.12 43.8252 116.71 43.8252C116.309 43.8252 115.985 43.9849 115.739 44.3042C115.493 44.6235 115.37 45.0806 115.37 45.6753ZM121.003 42.0938V43.2451H121.891V43.8735H121.003V46.8223C121.003 47.0127 121.043 47.1562 121.122 47.2529C121.201 47.3467 121.336 47.3936 121.526 47.3936C121.62 47.3936 121.749 47.376 121.913 47.3408V48C121.699 48.0586 121.491 48.0879 121.289 48.0879C120.926 48.0879 120.652 47.978 120.467 47.7583C120.283 47.5386 120.19 47.2266 120.19 46.8223V43.8735H119.325V43.2451H120.19V42.0938H121.003ZM124.818 48.0879C124.173 48.0879 123.649 47.877 123.245 47.4551C122.84 47.0303 122.638 46.4634 122.638 45.7544V45.605C122.638 45.1333 122.728 44.7129 122.906 44.3438C123.088 43.9717 123.34 43.6816 123.662 43.4736C123.987 43.2627 124.339 43.1572 124.717 43.1572C125.335 43.1572 125.815 43.3608 126.158 43.7681C126.501 44.1753 126.672 44.7583 126.672 45.5171V45.8555H123.451C123.463 46.3242 123.599 46.7036 123.86 46.9937C124.124 47.2808 124.458 47.4243 124.862 47.4243C125.149 47.4243 125.392 47.3657 125.591 47.2485C125.791 47.1313 125.965 46.9761 126.114 46.7827L126.611 47.1694C126.212 47.7817 125.615 48.0879 124.818 48.0879ZM124.717 43.8252C124.389 43.8252 124.113 43.9453 123.891 44.1855C123.668 44.4229 123.53 44.7568 123.478 45.1875H125.859V45.126C125.836 44.7129 125.725 44.3936 125.525 44.168C125.326 43.9395 125.057 43.8252 124.717 43.8252ZM128.5 48H127.688V41.25H128.5V48ZM129.968 48.5493H129.27L131.941 41.6016H132.636L129.968 48.5493ZM137.54 45.6753C137.54 46.4019 137.373 46.9863 137.039 47.4287C136.705 47.8682 136.257 48.0879 135.694 48.0879C135.094 48.0879 134.629 47.8755 134.301 47.4507L134.262 48H133.515V41.25H134.328V43.7681C134.656 43.3608 135.108 43.1572 135.686 43.1572C136.263 43.1572 136.715 43.3755 137.043 43.812C137.375 44.2485 137.54 44.8462 137.54 45.605V45.6753ZM136.727 45.583C136.727 45.0293 136.62 44.6016 136.406 44.2998C136.192 43.998 135.885 43.8472 135.483 43.8472C134.947 43.8472 134.562 44.0962 134.328 44.5942V46.6509C134.577 47.1489 134.965 47.3979 135.492 47.3979C135.882 47.3979 136.185 47.2471 136.402 46.9453C136.619 46.6436 136.727 46.1895 136.727 45.583ZM140.867 43.9746C140.744 43.9541 140.61 43.9438 140.467 43.9438C139.934 43.9438 139.572 44.1709 139.381 44.625V48H138.568V43.2451H139.359L139.373 43.7944C139.639 43.3696 140.017 43.1572 140.506 43.1572C140.665 43.1572 140.785 43.1777 140.867 43.2188V43.9746ZM141.781 48.5493H141.082L143.754 41.6016H144.448L141.781 48.5493ZM148.096 46.7388C148.096 46.519 148.012 46.3491 147.845 46.229C147.681 46.106 147.393 46.0005 146.979 45.9126C146.569 45.8247 146.243 45.7192 146 45.5962C145.759 45.4731 145.581 45.3267 145.463 45.1567C145.349 44.9868 145.292 44.7847 145.292 44.5503C145.292 44.1606 145.456 43.8311 145.784 43.5615C146.115 43.292 146.537 43.1572 147.05 43.1572C147.589 43.1572 148.025 43.2964 148.359 43.5747C148.696 43.853 148.865 44.209 148.865 44.6426H148.047C148.047 44.4199 147.952 44.228 147.762 44.0669C147.574 43.9058 147.337 43.8252 147.05 43.8252C146.754 43.8252 146.522 43.8896 146.355 44.0186C146.188 44.1475 146.105 44.3159 146.105 44.5239C146.105 44.7202 146.183 44.8682 146.338 44.9678C146.493 45.0674 146.773 45.1626 147.177 45.2534C147.584 45.3442 147.914 45.4526 148.166 45.5786C148.418 45.7046 148.604 45.8569 148.724 46.0356C148.847 46.2114 148.909 46.4268 148.909 46.6816C148.909 47.1064 148.739 47.4478 148.399 47.7056C148.059 47.9604 147.618 48.0879 147.076 48.0879C146.695 48.0879 146.358 48.0205 146.065 47.8857C145.772 47.751 145.542 47.5635 145.375 47.3232C145.211 47.0801 145.129 46.8179 145.129 46.5366H145.942C145.957 46.8091 146.065 47.0259 146.268 47.187C146.473 47.3452 146.742 47.4243 147.076 47.4243C147.384 47.4243 147.63 47.3628 147.814 47.2397C148.002 47.1138 148.096 46.9468 148.096 46.7388ZM152.903 47.5298C152.587 47.9019 152.123 48.0879 151.51 48.0879C151.003 48.0879 150.617 47.9414 150.35 47.6484C150.086 47.3525 149.953 46.916 149.95 46.3389V43.2451H150.763V46.3169C150.763 47.0376 151.056 47.3979 151.642 47.3979C152.263 47.3979 152.676 47.1665 152.881 46.7036V43.2451H153.694V48H152.921L152.903 47.5298ZM154.74 45.583C154.74 44.8418 154.912 44.2529 155.254 43.8164C155.597 43.377 156.051 43.1572 156.617 43.1572C157.197 43.1572 157.649 43.3623 157.975 43.7725L158.014 43.2451H158.757V47.8857C158.757 48.501 158.574 48.9858 158.208 49.3403C157.844 49.6948 157.355 49.8721 156.74 49.8721C156.397 49.8721 156.062 49.7988 155.733 49.6523C155.405 49.5059 155.155 49.3052 154.982 49.0503L155.404 48.5625C155.752 48.9932 156.179 49.2085 156.683 49.2085C157.078 49.2085 157.386 49.0972 157.605 48.8745C157.828 48.6519 157.939 48.3384 157.939 47.9341V47.5254C157.614 47.9004 157.17 48.0879 156.608 48.0879C156.051 48.0879 155.6 47.8638 155.254 47.4155C154.912 46.9673 154.74 46.3564 154.74 45.583ZM155.558 45.6753C155.558 46.2114 155.667 46.6333 155.887 46.9409C156.107 47.2456 156.415 47.3979 156.81 47.3979C157.323 47.3979 157.699 47.165 157.939 46.6992V44.5283C157.69 44.0742 157.317 43.8472 156.819 43.8472C156.423 43.8472 156.114 44.001 155.892 44.3086C155.669 44.6162 155.558 45.0718 155.558 45.6753ZM162.923 48C162.876 47.9062 162.838 47.7393 162.809 47.499C162.431 47.8916 161.979 48.0879 161.455 48.0879C160.986 48.0879 160.601 47.9561 160.299 47.6924C160 47.4258 159.851 47.0889 159.851 46.6816C159.851 46.1865 160.039 45.8027 160.414 45.5303C160.792 45.2549 161.322 45.1172 162.004 45.1172H162.795V44.7437C162.795 44.4595 162.71 44.2339 162.541 44.0669C162.371 43.897 162.12 43.812 161.789 43.812C161.499 43.812 161.256 43.8853 161.06 44.0317C160.863 44.1782 160.765 44.3555 160.765 44.5635H159.948C159.948 44.3262 160.031 44.0977 160.198 43.8779C160.368 43.6553 160.597 43.4795 160.884 43.3506C161.174 43.2217 161.492 43.1572 161.837 43.1572C162.385 43.1572 162.814 43.2949 163.125 43.5703C163.436 43.8428 163.597 44.2192 163.608 44.6997V46.8882C163.608 47.3247 163.664 47.6719 163.775 47.9297V48H162.923ZM161.574 47.3804C161.829 47.3804 162.07 47.3145 162.299 47.1826C162.527 47.0508 162.693 46.8794 162.795 46.6685V45.6929H162.158C161.162 45.6929 160.664 45.9844 160.664 46.5674C160.664 46.8223 160.749 47.0215 160.919 47.165C161.089 47.3086 161.307 47.3804 161.574 47.3804ZM167.181 43.9746C167.058 43.9541 166.925 43.9438 166.781 43.9438C166.248 43.9438 165.886 44.1709 165.696 44.625V48H164.883V43.2451H165.674L165.687 43.7944C165.954 43.3696 166.332 43.1572 166.821 43.1572C166.979 43.1572 167.099 43.1777 167.181 43.2188V43.9746ZM169.625 45.6138H167.48V44.9502H169.625V45.6138ZM171.303 48H170.49V41.25H171.303V48ZM172.393 45.5786C172.393 45.1128 172.484 44.6938 172.666 44.3218C172.85 43.9497 173.105 43.6626 173.43 43.4604C173.758 43.2583 174.132 43.1572 174.551 43.1572C175.198 43.1572 175.721 43.3813 176.12 43.8296C176.521 44.2778 176.722 44.874 176.722 45.6182V45.6753C176.722 46.1382 176.632 46.5542 176.454 46.9233C176.278 47.2896 176.024 47.5752 175.693 47.7803C175.365 47.9854 174.987 48.0879 174.56 48.0879C173.915 48.0879 173.392 47.8638 172.991 47.4155C172.592 46.9673 172.393 46.374 172.393 45.6357V45.5786ZM173.21 45.6753C173.21 46.2026 173.332 46.626 173.575 46.9453C173.821 47.2646 174.149 47.4243 174.56 47.4243C174.973 47.4243 175.301 47.2632 175.544 46.9409C175.787 46.6157 175.909 46.1616 175.909 45.5786C175.909 45.0571 175.784 44.6353 175.535 44.313C175.289 43.9878 174.961 43.8252 174.551 43.8252C174.149 43.8252 173.826 43.9849 173.58 44.3042C173.333 44.6235 173.21 45.0806 173.21 45.6753ZM178.141 48V43.8735H177.39V43.2451H178.141V42.7573C178.141 42.2476 178.277 41.8535 178.55 41.5752C178.822 41.2969 179.208 41.1577 179.706 41.1577C179.893 41.1577 180.079 41.1826 180.264 41.2324L180.22 41.8916C180.082 41.8652 179.936 41.8521 179.78 41.8521C179.517 41.8521 179.313 41.9297 179.169 42.085C179.026 42.2373 178.954 42.457 178.954 42.7441V43.2451H179.969V43.8735H178.954V48H178.141ZM181.973 42.0938V43.2451H182.861V43.8735H181.973V46.8223C181.973 47.0127 182.013 47.1562 182.092 47.2529C182.171 47.3467 182.306 47.3936 182.496 47.3936C182.59 47.3936 182.719 47.376 182.883 47.3408V48C182.669 48.0586 182.461 48.0879 182.259 48.0879C181.896 48.0879 181.622 47.978 181.437 47.7583C181.252 47.5386 181.16 47.2266 181.16 46.8223V43.8735H180.294V43.2451H181.16V42.0938H181.973ZM183.832 47.5737C183.832 47.4331 183.873 47.3159 183.955 47.2222C184.04 47.1284 184.166 47.0815 184.333 47.0815C184.5 47.0815 184.626 47.1284 184.711 47.2222C184.799 47.3159 184.843 47.4331 184.843 47.5737C184.843 47.7085 184.799 47.8213 184.711 47.9121C184.626 48.0029 184.5 48.0483 184.333 48.0483C184.166 48.0483 184.04 48.0029 183.955 47.9121C183.873 47.8213 183.832 47.7085 183.832 47.5737ZM189.123 47.5298C188.807 47.9019 188.342 48.0879 187.73 48.0879C187.223 48.0879 186.836 47.9414 186.57 47.6484C186.306 47.3525 186.173 46.916 186.17 46.3389V43.2451H186.983V46.3169C186.983 47.0376 187.276 47.3979 187.862 47.3979C188.483 47.3979 188.896 47.1665 189.101 46.7036V43.2451H189.914V48H189.141L189.123 47.5298ZM192.48 45.7983L191.971 46.3301V48H191.158V41.25H191.971V45.3325L192.406 44.8096L193.887 43.2451H194.875L193.025 45.2314L195.091 48H194.137L192.48 45.7983ZM195.732 47.5737C195.732 47.4331 195.773 47.3159 195.855 47.2222C195.94 47.1284 196.066 47.0815 196.233 47.0815C196.4 47.0815 196.526 47.1284 196.611 47.2222C196.699 47.3159 196.743 47.4331 196.743 47.5737C196.743 47.7085 196.699 47.8213 196.611 47.9121C196.526 48.0029 196.4 48.0483 196.233 48.0483C196.066 48.0483 195.94 48.0029 195.855 47.9121C195.773 47.8213 195.732 47.7085 195.732 47.5737ZM198.901 43.8208C199.261 43.3784 199.73 43.1572 200.307 43.1572C201.312 43.1572 201.819 43.7241 201.828 44.8579V48H201.015V44.8535C201.012 44.5107 200.933 44.2573 200.777 44.0933C200.625 43.9292 200.386 43.8472 200.061 43.8472C199.797 43.8472 199.566 43.9175 199.367 44.0581C199.167 44.1987 199.012 44.3833 198.901 44.6118V48H198.088V41.25H198.901V43.8208ZM204.148 42.0938V43.2451H205.036V43.8735H204.148V46.8223C204.148 47.0127 204.188 47.1562 204.267 47.2529C204.346 47.3467 204.48 47.3936 204.671 47.3936C204.765 47.3936 204.894 47.376 205.058 47.3408V48C204.844 48.0586 204.636 48.0879 204.434 48.0879C204.07 48.0879 203.796 47.978 203.612 47.7583C203.427 47.5386 203.335 47.2266 203.335 46.8223V43.8735H202.469V43.2451H203.335V42.0938H204.148ZM206.754 43.2451L206.776 43.7725C207.125 43.3623 207.595 43.1572 208.187 43.1572C208.852 43.1572 209.304 43.4121 209.544 43.9219C209.703 43.6934 209.908 43.5088 210.16 43.3682C210.415 43.2275 210.715 43.1572 211.061 43.1572C212.104 43.1572 212.634 43.7095 212.651 44.814V48H211.838V44.8623C211.838 44.5225 211.761 44.269 211.605 44.1021C211.45 43.9321 211.189 43.8472 210.823 43.8472C210.521 43.8472 210.271 43.938 210.072 44.1196C209.873 44.2983 209.757 44.54 209.725 44.8447V48H208.907V44.8843C208.907 44.1929 208.569 43.8472 207.892 43.8472C207.359 43.8472 206.994 44.0742 206.798 44.5283V48H205.985V43.2451H206.754ZM214.765 48H213.952V41.25H214.765V48ZM32.2734 53.498H30.2783V59H29.1753V53.498H27.1978V52.6016H32.2734V53.498ZM35.2134 55.2207C35.0728 55.1973 34.9277 55.1855 34.7783 55.1855C34.2891 55.1855 33.9595 55.373 33.7896 55.748V59H32.7217V54.2451H33.7412L33.7676 54.7769C34.0254 54.3638 34.3828 54.1572 34.8398 54.1572C34.9922 54.1572 35.1182 54.1777 35.2178 54.2188L35.2134 55.2207ZM38.5972 59C38.5503 58.9092 38.5093 58.7612 38.4741 58.5562C38.1343 58.9106 37.7183 59.0879 37.2261 59.0879C36.7485 59.0879 36.3589 58.9517 36.0571 58.6792C35.7554 58.4067 35.6045 58.0698 35.6045 57.6685C35.6045 57.1616 35.792 56.7734 36.167 56.5039C36.5449 56.2314 37.084 56.0952 37.7842 56.0952H38.439V55.7832C38.439 55.5371 38.3701 55.3408 38.2324 55.1943C38.0947 55.0449 37.8853 54.9702 37.604 54.9702C37.3608 54.9702 37.1616 55.0317 37.0063 55.1548C36.8511 55.2749 36.7734 55.4287 36.7734 55.6162H35.7056C35.7056 55.3555 35.792 55.1123 35.9648 54.8867C36.1377 54.6582 36.3721 54.4795 36.668 54.3506C36.9668 54.2217 37.2993 54.1572 37.6655 54.1572C38.2222 54.1572 38.666 54.2979 38.9971 54.5791C39.3281 54.8574 39.498 55.25 39.5068 55.7568V57.9014C39.5068 58.3291 39.5669 58.6704 39.687 58.9253V59H38.5972ZM37.4238 58.231C37.6348 58.231 37.8325 58.1797 38.0171 58.0771C38.2046 57.9746 38.3452 57.8369 38.439 57.6641V56.7676H37.8633C37.4678 56.7676 37.1704 56.8364 36.9712 56.9741C36.772 57.1118 36.6724 57.3066 36.6724 57.5586C36.6724 57.7637 36.7397 57.9277 36.8745 58.0508C37.0122 58.1709 37.1953 58.231 37.4238 58.231ZM42.2314 57.6465L43.2378 54.2451H44.3408L42.6929 59H41.7656L40.1045 54.2451H41.2119L42.2314 57.6465ZM47.0435 59.0879C46.3667 59.0879 45.8174 58.8755 45.3955 58.4507C44.9766 58.0229 44.7671 57.4546 44.7671 56.7456V56.6138C44.7671 56.1392 44.8579 55.7158 45.0396 55.3438C45.2241 54.9688 45.4819 54.6772 45.813 54.4692C46.144 54.2612 46.5132 54.1572 46.9204 54.1572C47.5679 54.1572 48.0674 54.3638 48.4189 54.7769C48.7734 55.1899 48.9507 55.7744 48.9507 56.5303V56.9609H45.8438C45.876 57.3535 46.0063 57.6641 46.2349 57.8926C46.4663 58.1211 46.7563 58.2354 47.105 58.2354C47.5942 58.2354 47.9927 58.0376 48.3003 57.6421L48.876 58.1914C48.6855 58.4756 48.4307 58.6968 48.1113 58.855C47.7949 59.0103 47.439 59.0879 47.0435 59.0879ZM46.916 55.0142C46.623 55.0142 46.3857 55.1167 46.2041 55.3218C46.0254 55.5269 45.9111 55.8125 45.8613 56.1787H47.896V56.0996C47.8726 55.7422 47.7773 55.4727 47.6104 55.291C47.4434 55.1064 47.2119 55.0142 46.916 55.0142ZM50.9194 59H49.8516V52.25H50.9194V59ZM57.1685 59C57.1216 58.9092 57.0806 58.7612 57.0454 58.5562C56.7056 58.9106 56.2896 59.0879 55.7974 59.0879C55.3198 59.0879 54.9302 58.9517 54.6284 58.6792C54.3267 58.4067 54.1758 58.0698 54.1758 57.6685C54.1758 57.1616 54.3633 56.7734 54.7383 56.5039C55.1162 56.2314 55.6553 56.0952 56.3555 56.0952H57.0103V55.7832C57.0103 55.5371 56.9414 55.3408 56.8037 55.1943C56.666 55.0449 56.4565 54.9702 56.1753 54.9702C55.9321 54.9702 55.7329 55.0317 55.5776 55.1548C55.4224 55.2749 55.3447 55.4287 55.3447 55.6162H54.2769C54.2769 55.3555 54.3633 55.1123 54.5361 54.8867C54.709 54.6582 54.9434 54.4795 55.2393 54.3506C55.5381 54.2217 55.8706 54.1572 56.2368 54.1572C56.7935 54.1572 57.2373 54.2979 57.5684 54.5791C57.8994 54.8574 58.0693 55.25 58.0781 55.7568V57.9014C58.0781 58.3291 58.1382 58.6704 58.2583 58.9253V59H57.1685ZM55.9951 58.231C56.2061 58.231 56.4038 58.1797 56.5884 58.0771C56.7759 57.9746 56.9165 57.8369 57.0103 57.6641V56.7676H56.4346C56.0391 56.7676 55.7417 56.8364 55.5425 56.9741C55.3433 57.1118 55.2437 57.3066 55.2437 57.5586C55.2437 57.7637 55.311 57.9277 55.4458 58.0508C55.5835 58.1709 55.7666 58.231 55.9951 58.231ZM59.0098 56.5874C59.0098 55.8491 59.1826 55.2603 59.5283 54.8208C59.877 54.3784 60.3384 54.1572 60.9126 54.1572C61.4546 54.1572 61.8809 54.3462 62.1914 54.7241L62.2397 54.2451H63.2021V58.855C63.2021 59.479 63.0073 59.9712 62.6177 60.3315C62.231 60.6919 61.708 60.8721 61.0488 60.8721C60.7002 60.8721 60.3589 60.7988 60.0249 60.6523C59.6938 60.5088 59.4419 60.3198 59.269 60.0854L59.7744 59.4438C60.1025 59.8335 60.5068 60.0283 60.9873 60.0283C61.3418 60.0283 61.6216 59.9316 61.8267 59.7383C62.0317 59.5479 62.1343 59.2666 62.1343 58.8945V58.5737C61.8267 58.9165 61.4165 59.0879 60.9038 59.0879C60.3472 59.0879 59.8916 58.8667 59.5371 58.4243C59.1855 57.9819 59.0098 57.3696 59.0098 56.5874ZM60.0732 56.6797C60.0732 57.1572 60.1699 57.5337 60.3633 57.8091C60.5596 58.0815 60.8306 58.2178 61.1763 58.2178C61.6069 58.2178 61.9263 58.0332 62.1343 57.6641V55.5723C61.9321 55.2119 61.6157 55.0317 61.1851 55.0317C60.8335 55.0317 60.5596 55.1709 60.3633 55.4492C60.1699 55.7275 60.0732 56.1377 60.0732 56.6797ZM66.397 59.0879C65.7202 59.0879 65.1709 58.8755 64.749 58.4507C64.3301 58.0229 64.1206 57.4546 64.1206 56.7456V56.6138C64.1206 56.1392 64.2114 55.7158 64.3931 55.3438C64.5776 54.9688 64.8354 54.6772 65.1665 54.4692C65.4976 54.2612 65.8667 54.1572 66.2739 54.1572C66.9214 54.1572 67.4209 54.3638 67.7725 54.7769C68.127 55.1899 68.3042 55.7744 68.3042 56.5303V56.9609H65.1973C65.2295 57.3535 65.3599 57.6641 65.5884 57.8926C65.8198 58.1211 66.1099 58.2354 66.4585 58.2354C66.9478 58.2354 67.3462 58.0376 67.6538 57.6421L68.2295 58.1914C68.0391 58.4756 67.7842 58.6968 67.4648 58.855C67.1484 59.0103 66.7925 59.0879 66.397 59.0879ZM66.2695 55.0142C65.9766 55.0142 65.7393 55.1167 65.5576 55.3218C65.3789 55.5269 65.2646 55.8125 65.2148 56.1787H67.2495V56.0996C67.2261 55.7422 67.1309 55.4727 66.9639 55.291C66.7969 55.1064 66.5654 55.0142 66.2695 55.0142ZM70.1279 54.2451L70.1587 54.7944C70.5103 54.3696 70.9717 54.1572 71.543 54.1572C72.5332 54.1572 73.0371 54.7241 73.0547 55.8579V59H71.9868V55.9194C71.9868 55.6177 71.9209 55.395 71.7891 55.2515C71.6602 55.105 71.4478 55.0317 71.1519 55.0317C70.7212 55.0317 70.4004 55.2266 70.1895 55.6162V59H69.1216V54.2451H70.1279ZM76.1001 58.2354C76.3667 58.2354 76.5879 58.1577 76.7637 58.0024C76.9395 57.8472 77.0332 57.6553 77.0449 57.4268H78.0513C78.0396 57.7227 77.9473 57.9995 77.7744 58.2573C77.6016 58.5122 77.3672 58.7144 77.0713 58.8638C76.7754 59.0132 76.4561 59.0879 76.1133 59.0879C75.4482 59.0879 74.9209 58.8726 74.5312 58.4419C74.1416 58.0112 73.9468 57.4165 73.9468 56.6577V56.5479C73.9468 55.8242 74.1401 55.2456 74.5269 54.812C74.9136 54.3755 75.4409 54.1572 76.1089 54.1572C76.6743 54.1572 77.1343 54.3228 77.4888 54.6538C77.8462 54.9819 78.0337 55.4141 78.0513 55.9502H77.0449C77.0332 55.6777 76.9395 55.4536 76.7637 55.2778C76.5908 55.1021 76.3696 55.0142 76.1001 55.0142C75.7544 55.0142 75.4878 55.1401 75.3003 55.3921C75.1128 55.6411 75.0176 56.0205 75.0146 56.5303V56.7017C75.0146 57.2173 75.1069 57.6025 75.2915 57.8574C75.479 58.1094 75.7485 58.2354 76.1001 58.2354ZM80.521 57.4707L81.4878 54.2451H82.626L80.7363 59.7207C80.4463 60.5205 79.9541 60.9204 79.2598 60.9204C79.1045 60.9204 78.9331 60.894 78.7456 60.8413V60.0151L78.9478 60.0283C79.2173 60.0283 79.4194 59.9785 79.5542 59.8789C79.6919 59.7822 79.8003 59.6182 79.8794 59.3867L80.0332 58.978L78.3633 54.2451H79.5146L80.521 57.4707ZM83.8872 57.875C84.0864 57.875 84.2402 57.9321 84.3486 58.0464C84.457 58.1577 84.5112 58.2983 84.5112 58.4683C84.5112 58.6353 84.457 58.7744 84.3486 58.8857C84.2402 58.9941 84.0864 59.0483 83.8872 59.0483C83.6968 59.0483 83.5459 58.9941 83.4346 58.8857C83.3232 58.7773 83.2676 58.6382 83.2676 58.4683C83.2676 58.2983 83.3218 58.1577 83.4302 58.0464C83.5386 57.9321 83.6909 57.875 83.8872 57.875ZM83.8872 54.144C84.0864 54.144 84.2402 54.2012 84.3486 54.3154C84.457 54.4268 84.5112 54.5674 84.5112 54.7373C84.5112 54.9043 84.457 55.0435 84.3486 55.1548C84.2402 55.2632 84.0864 55.3174 83.8872 55.3174C83.6968 55.3174 83.5459 55.2632 83.4346 55.1548C83.3232 55.0464 83.2676 54.9072 83.2676 54.7373C83.2676 54.5674 83.3218 54.4268 83.4302 54.3154C83.5386 54.2012 83.6909 54.144 83.8872 54.144ZM92.1533 57.8794L93.0674 54.2451H93.8804L92.4961 59H91.8369L90.6812 55.3965L89.5562 59H88.897L87.5171 54.2451H88.3257L89.2617 57.8047L90.3691 54.2451H91.0239L92.1533 57.8794ZM95.5942 59H94.7812V54.2451H95.5942V59ZM94.7153 52.9839C94.7153 52.8521 94.7549 52.7407 94.834 52.6499C94.916 52.5591 95.0361 52.5137 95.1943 52.5137C95.3525 52.5137 95.4727 52.5591 95.5547 52.6499C95.6367 52.7407 95.6777 52.8521 95.6777 52.9839C95.6777 53.1157 95.6367 53.2256 95.5547 53.3135C95.4727 53.4014 95.3525 53.4453 95.1943 53.4453C95.0361 53.4453 94.916 53.4014 94.834 53.3135C94.7549 53.2256 94.7153 53.1157 94.7153 52.9839ZM97.6685 54.2451L97.6948 54.8428C98.0581 54.3857 98.5327 54.1572 99.1187 54.1572C100.124 54.1572 100.63 54.7241 100.639 55.8579V59H99.8262V55.8535C99.8232 55.5107 99.7441 55.2573 99.5889 55.0933C99.4365 54.9292 99.1978 54.8472 98.8726 54.8472C98.6089 54.8472 98.3774 54.9175 98.1782 55.0581C97.979 55.1987 97.8237 55.3833 97.7124 55.6118V59H96.8994V54.2451H97.6685ZM101.667 56.583C101.667 55.8535 101.84 55.2676 102.186 54.8252C102.532 54.3799 102.984 54.1572 103.544 54.1572C104.101 54.1572 104.542 54.3477 104.867 54.7285V52.25H105.68V59H104.933L104.893 58.4902C104.568 58.8887 104.115 59.0879 103.535 59.0879C102.984 59.0879 102.535 58.8623 102.186 58.4111C101.84 57.96 101.667 57.3711 101.667 56.6445V56.583ZM102.48 56.6753C102.48 57.2144 102.592 57.6362 102.814 57.9409C103.037 58.2456 103.345 58.3979 103.737 58.3979C104.253 58.3979 104.629 58.1665 104.867 57.7036V55.5195C104.624 55.0713 104.25 54.8472 103.746 54.8472C103.348 54.8472 103.037 55.001 102.814 55.3086C102.592 55.6162 102.48 56.0718 102.48 56.6753ZM108.501 57.8091L109.608 54.2451H110.479L108.567 59.7339C108.271 60.5249 107.801 60.9204 107.156 60.9204L107.002 60.9072L106.699 60.8501V60.1909L106.919 60.2085C107.194 60.2085 107.408 60.1528 107.561 60.0415C107.716 59.9302 107.843 59.7266 107.943 59.4307L108.123 58.9473L106.427 54.2451H107.314L108.501 57.8091ZM113.054 58.4243C113.344 58.4243 113.597 58.3364 113.814 58.1606C114.031 57.9849 114.151 57.7651 114.174 57.5015H114.943C114.929 57.7739 114.835 58.0332 114.662 58.2793C114.489 58.5254 114.258 58.7217 113.968 58.8682C113.681 59.0146 113.376 59.0879 113.054 59.0879C112.406 59.0879 111.891 58.8726 111.507 58.4419C111.126 58.0083 110.936 57.4165 110.936 56.6665V56.5303C110.936 56.0674 111.021 55.6558 111.19 55.2954C111.36 54.9351 111.604 54.6553 111.92 54.4561C112.239 54.2568 112.616 54.1572 113.049 54.1572C113.583 54.1572 114.025 54.3169 114.376 54.6362C114.731 54.9556 114.92 55.3701 114.943 55.8799H114.174C114.151 55.5723 114.034 55.3203 113.823 55.124C113.615 54.9248 113.357 54.8252 113.049 54.8252C112.636 54.8252 112.315 54.9746 112.087 55.2734C111.861 55.5693 111.749 55.9985 111.749 56.561V56.7148C111.749 57.2627 111.861 57.6846 112.087 57.9805C112.312 58.2764 112.635 58.4243 113.054 58.4243ZM116.741 59H115.928V54.2451H116.741V59ZM115.862 52.9839C115.862 52.8521 115.901 52.7407 115.98 52.6499C116.062 52.5591 116.183 52.5137 116.341 52.5137C116.499 52.5137 116.619 52.5591 116.701 52.6499C116.783 52.7407 116.824 52.8521 116.824 52.9839C116.824 53.1157 116.783 53.2256 116.701 53.3135C116.619 53.4014 116.499 53.4453 116.341 53.4453C116.183 53.4453 116.062 53.4014 115.98 53.3135C115.901 53.2256 115.862 53.1157 115.862 52.9839ZM119.149 53.0938V54.2451H120.037V54.8735H119.149V57.8223C119.149 58.0127 119.188 58.1562 119.268 58.2529C119.347 58.3467 119.481 58.3936 119.672 58.3936C119.766 58.3936 119.895 58.376 120.059 58.3408V59C119.845 59.0586 119.637 59.0879 119.435 59.0879C119.071 59.0879 118.797 58.978 118.613 58.7583C118.428 58.5386 118.336 58.2266 118.336 57.8223V54.8735H117.47V54.2451H118.336V53.0938H119.149ZM122.546 57.8091L123.653 54.2451H124.523L122.612 59.7339C122.316 60.5249 121.846 60.9204 121.201 60.9204L121.047 60.9072L120.744 60.8501V60.1909L120.964 60.2085C121.239 60.2085 121.453 60.1528 121.605 60.0415C121.761 59.9302 121.888 59.7266 121.988 59.4307L122.168 58.9473L120.472 54.2451H121.359L122.546 57.8091ZM126.356 53.0938V54.2451H127.244V54.8735H126.356V57.8223C126.356 58.0127 126.396 58.1562 126.475 58.2529C126.554 58.3467 126.688 58.3936 126.879 58.3936C126.973 58.3936 127.102 58.376 127.266 58.3408V59C127.052 59.0586 126.844 59.0879 126.642 59.0879C126.278 59.0879 126.004 58.978 125.82 58.7583C125.635 58.5386 125.543 58.2266 125.543 57.8223V54.8735H124.677V54.2451H125.543V53.0938H126.356ZM130.496 54.9746C130.373 54.9541 130.239 54.9438 130.096 54.9438C129.562 54.9438 129.201 55.1709 129.01 55.625V59H128.197V54.2451H128.988L129.001 54.7944C129.268 54.3696 129.646 54.1572 130.135 54.1572C130.293 54.1572 130.414 54.1777 130.496 54.2188V54.9746ZM134.007 59C133.96 58.9062 133.922 58.7393 133.893 58.499C133.515 58.8916 133.063 59.0879 132.539 59.0879C132.07 59.0879 131.685 58.9561 131.383 58.6924C131.084 58.4258 130.935 58.0889 130.935 57.6816C130.935 57.1865 131.123 56.8027 131.498 56.5303C131.875 56.2549 132.406 56.1172 133.088 56.1172H133.879V55.7437C133.879 55.4595 133.794 55.2339 133.625 55.0669C133.455 54.897 133.204 54.812 132.873 54.812C132.583 54.812 132.34 54.8853 132.144 55.0317C131.947 55.1782 131.849 55.3555 131.849 55.5635H131.032C131.032 55.3262 131.115 55.0977 131.282 54.8779C131.452 54.6553 131.681 54.4795 131.968 54.3506C132.258 54.2217 132.576 54.1572 132.921 54.1572C133.469 54.1572 133.898 54.2949 134.209 54.5703C134.52 54.8428 134.681 55.2192 134.692 55.6997V57.8882C134.692 58.3247 134.748 58.6719 134.859 58.9297V59H134.007ZM132.658 58.3804C132.913 58.3804 133.154 58.3145 133.383 58.1826C133.611 58.0508 133.777 57.8794 133.879 57.6685V56.6929H133.242C132.246 56.6929 131.748 56.9844 131.748 57.5674C131.748 57.8223 131.833 58.0215 132.003 58.165C132.173 58.3086 132.391 58.3804 132.658 58.3804ZM137.465 57.897L138.643 54.2451H139.474L137.769 59H137.149L135.426 54.2451H136.257L137.465 57.897ZM142.167 59.0879C141.523 59.0879 140.999 58.877 140.594 58.4551C140.19 58.0303 139.988 57.4634 139.988 56.7544V56.605C139.988 56.1333 140.077 55.7129 140.256 55.3438C140.438 54.9717 140.689 54.6816 141.012 54.4736C141.337 54.2627 141.688 54.1572 142.066 54.1572C142.685 54.1572 143.165 54.3608 143.508 54.7681C143.851 55.1753 144.022 55.7583 144.022 56.5171V56.8555H140.801C140.812 57.3242 140.949 57.7036 141.209 57.9937C141.473 58.2808 141.807 58.4243 142.211 58.4243C142.499 58.4243 142.742 58.3657 142.941 58.2485C143.14 58.1313 143.314 57.9761 143.464 57.7827L143.96 58.1694C143.562 58.7817 142.964 59.0879 142.167 59.0879ZM142.066 54.8252C141.738 54.8252 141.463 54.9453 141.24 55.1855C141.018 55.4229 140.88 55.7568 140.827 56.1875H143.209V56.126C143.186 55.7129 143.074 55.3936 142.875 55.168C142.676 54.9395 142.406 54.8252 142.066 54.8252ZM145.85 59H145.037V52.25H145.85V59ZM147.173 58.5737C147.173 58.4331 147.214 58.3159 147.296 58.2222C147.381 58.1284 147.507 58.0815 147.674 58.0815C147.841 58.0815 147.967 58.1284 148.052 58.2222C148.14 58.3159 148.184 58.4331 148.184 58.5737C148.184 58.7085 148.14 58.8213 148.052 58.9121C147.967 59.0029 147.841 59.0483 147.674 59.0483C147.507 59.0483 147.381 59.0029 147.296 58.9121C147.214 58.8213 147.173 58.7085 147.173 58.5737ZM151.436 58.4243C151.726 58.4243 151.979 58.3364 152.196 58.1606C152.413 57.9849 152.533 57.7651 152.556 57.5015H153.325C153.311 57.7739 153.217 58.0332 153.044 58.2793C152.871 58.5254 152.64 58.7217 152.35 58.8682C152.062 59.0146 151.758 59.0879 151.436 59.0879C150.788 59.0879 150.272 58.8726 149.889 58.4419C149.508 58.0083 149.317 57.4165 149.317 56.6665V56.5303C149.317 56.0674 149.402 55.6558 149.572 55.2954C149.742 54.9351 149.985 54.6553 150.302 54.4561C150.621 54.2568 150.998 54.1572 151.431 54.1572C151.964 54.1572 152.407 54.3169 152.758 54.6362C153.113 54.9556 153.302 55.3701 153.325 55.8799H152.556C152.533 55.5723 152.416 55.3203 152.205 55.124C151.997 54.9248 151.739 54.8252 151.431 54.8252C151.018 54.8252 150.697 54.9746 150.469 55.2734C150.243 55.5693 150.13 55.9985 150.13 56.561V56.7148C150.13 57.2627 150.243 57.6846 150.469 57.9805C150.694 58.2764 151.017 58.4243 151.436 58.4243ZM154.024 56.5786C154.024 56.1128 154.115 55.6938 154.296 55.3218C154.481 54.9497 154.736 54.6626 155.061 54.4604C155.389 54.2583 155.763 54.1572 156.182 54.1572C156.829 54.1572 157.352 54.3813 157.75 54.8296C158.152 55.2778 158.353 55.874 158.353 56.6182V56.6753C158.353 57.1382 158.263 57.5542 158.084 57.9233C157.909 58.2896 157.655 58.5752 157.324 58.7803C156.996 58.9854 156.618 59.0879 156.19 59.0879C155.546 59.0879 155.023 58.8638 154.622 58.4155C154.223 57.9673 154.024 57.374 154.024 56.6357V56.5786ZM154.841 56.6753C154.841 57.2026 154.963 57.626 155.206 57.9453C155.452 58.2646 155.78 58.4243 156.19 58.4243C156.604 58.4243 156.932 58.2632 157.175 57.9409C157.418 57.6157 157.54 57.1616 157.54 56.5786C157.54 56.0571 157.415 55.6353 157.166 55.313C156.92 54.9878 156.592 54.8252 156.182 54.8252C155.78 54.8252 155.457 54.9849 155.21 55.3042C154.964 55.6235 154.841 56.0806 154.841 56.6753ZM160.137 54.2451L160.159 54.7725C160.507 54.3623 160.978 54.1572 161.569 54.1572C162.234 54.1572 162.687 54.4121 162.927 54.9219C163.085 54.6934 163.291 54.5088 163.542 54.3682C163.797 54.2275 164.098 54.1572 164.443 54.1572C165.486 54.1572 166.017 54.7095 166.034 55.814V59H165.221V55.8623C165.221 55.5225 165.144 55.269 164.988 55.1021C164.833 54.9321 164.572 54.8472 164.206 54.8472C163.904 54.8472 163.654 54.938 163.455 55.1196C163.255 55.2983 163.14 55.54 163.107 55.8447V59H162.29V55.8843C162.29 55.1929 161.952 54.8472 161.275 54.8472C160.742 54.8472 160.377 55.0742 160.181 55.5283V59H159.368V54.2451H160.137ZM167.427 59.5493H166.729L169.4 52.6016H170.095L167.427 59.5493Z" fill="#131C3E"/>
</g>
<defs>
<filter id="filter0_d" x="0" y="0" width="237" height="82" filterUnits="userSpaceOnUse" color-interpolation-filters="sRGB">
<feFlood flood-opacity="0" result="BackgroundImageFix"/>
<feColorMatrix in="SourceAlpha" type="matrix" values="0 0 0 0 0 0 0 0 0 0 0 0 0 0 0 0 0 0 127 0"/>
<feOffset dy="4"/>
<feGaussianBlur stdDeviation="2"/>
<feColorMatrix type="matrix" values="0 0 0 0 0 0 0 0 0 0 0 0 0 0 0 0 0 0 0.25 0"/>
<feBlend mode="normal" in2="BackgroundImageFix" result="effect1_dropShadow"/>
<feBlend mode="normal" in="SourceGraphic" in2="effect1_dropShadow" result="shape"/>
</filter>
</defs>
</svg>
